M48
; DRILL file {KiCad 8.0.1} date 2024-04-18T15:02:13+0200
; FORMAT={-:-/ absolute / inch / decimal}
; #@! TF.CreationDate,2024-04-18T15:02:13+02:00
; #@! TF.GenerationSoftware,Kicad,Pcbnew,8.0.1
; #@! TF.FileFunction,Plated,1,2,PTH
FMAT,2
INCH
; #@! TA.AperFunction,Plated,PTH,ViaDrill
T1C0.0157
; #@! TA.AperFunction,Plated,PTH,ComponentDrill
T2C0.0276
; #@! TA.AperFunction,Plated,PTH,ComponentDrill
T3C0.0295
; #@! TA.AperFunction,Plated,PTH,ComponentDrill
T4C0.0300
; #@! TA.AperFunction,Plated,PTH,ComponentDrill
T5C0.0315
; #@! TA.AperFunction,Plated,PTH,ComponentDrill
T6C0.0335
; #@! TA.AperFunction,Plated,PTH,ComponentDrill
T7C0.0354
; #@! TA.AperFunction,Plated,PTH,ComponentDrill
T8C0.0394
; #@! TA.AperFunction,Plated,PTH,ComponentDrill
T9C0.0433
; #@! TA.AperFunction,Plated,PTH,ComponentDrill
T10C0.0866
; #@! TA.AperFunction,Plated,PTH,ComponentDrill
T11C0.0945
; #@! TA.AperFunction,Plated,PTH,ComponentDrill
T12C0.1024
%
G90
G05
T1
X3.2087Y-3.3858
X3.3386Y-2.8976
X3.3898Y-2.7795
X3.4587Y-3.7106
X3.4646Y-3.752
X3.4803Y-3.0433
X3.4882Y-2.8937
X3.5074Y-2.7318
X3.562Y-3.7037
X3.7192Y-2.9147
X3.7441Y-3.4724
X3.7598Y-2.2126
X3.7913Y-3.5197
X3.8189Y-2.5394
X3.8504Y-2.4375
X3.9291Y-1.7992
X3.9803Y-2.437
X4.0354Y-2.0394
X4.0591Y-3.1614
X4.0906Y-3.0197
X4.122Y-2.6535
X4.1339Y-3.1614
X4.2008Y-2.0738
X4.2047Y-3.0787
X4.2835Y-2.3268
X4.3189Y-2.9488
X4.3465Y-1.7047
X4.3465Y-1.748
X4.3583Y-1.5157
X4.378Y-1.5827
X4.378Y-2.4921
X4.3878Y-2.5925
X4.4055Y-1.5157
X4.4173Y-2.3583
X4.4173Y-2.6319
X4.4606Y-2.5
X4.4685Y-1.7047
X4.4685Y-1.748
X4.4843Y-1.5709
X4.5354Y-2.2756
X4.5827Y-1.5423
X4.6693Y-2.4173
X4.7047Y-3.063
X4.7126Y-2.3071
X4.7165Y-2.689
X4.7165Y-2.9449
X4.7195Y-3.248
X4.9173Y-2.4567
X4.9213Y-2.9055
X4.9606Y-1.8346
X4.9606Y-1.878
X4.9803Y-2.8031
X4.9882Y-2.311
X4.9961Y-2.5315
X5.0Y-2.626
X5.0315Y-2.3346
X5.0315Y-2.6811
X5.0315Y-2.7244
X5.0315Y-2.8031
X5.0984Y-1.9173
X5.1024Y-2.1024
X5.1142Y-3.0394
X5.1496Y-1.9134
X5.1496Y-2.0945
X5.1811Y-3.5906
X5.185Y-3.6378
X5.1969Y-2.1102
X5.2402Y-2.8268
X5.2402Y-2.8701
X5.2402Y-2.9213
X5.2402Y-2.9646
X5.4764Y-2.815
X5.4764Y-2.8701
X5.4764Y-2.9173
X5.4764Y-2.9606
X5.5118Y-2.1575
X5.5394Y-2.2874
X5.5472Y-3.0157
X5.5787Y-1.3189
X5.6811Y-2.815
X5.689Y-1.5866
X5.6929Y-2.8701
X5.7283Y-1.7047
X5.748Y-2.7756
X5.748Y-2.8189
X5.7992Y-2.2638
X5.8465Y-1.5827
X5.8583Y-2.3189
X5.8937Y-2.0866
X5.8976Y-1.8819
X5.9331Y-1.3189
X5.9606Y-2.3071
X5.9921Y-1.3189
X6.0118Y-2.0827
X6.0591Y-2.315
X6.1811Y-1.3071
X6.1969Y-1.5236
X6.252Y-1.5276
X6.5866Y-2.2992
X6.7244Y-2.3031
X6.9803Y-1.2992
T2
X3.3142Y-1.5669
X3.3142Y-1.6535
X3.3142Y-1.7402
X3.315Y-1.3858
X3.315Y-1.4803
X3.3378Y-3.1181
X3.3386Y-2.811
X3.448Y-1.8661
X3.4787Y-2.3425
X3.6142Y-1.5669
X3.6142Y-1.6535
X3.6142Y-1.7402
X3.615Y-1.3858
X3.615Y-1.4803
X3.6378Y-3.1181
X3.6386Y-2.811
X3.7087Y-3.2362
X3.7087Y-3.5512
X3.748Y-1.8661
X3.7484Y-2.6063
X3.7484Y-2.8583
X3.7787Y-2.3425
X3.922Y-2.5118
X4.0087Y-3.2362
X4.0087Y-3.5512
X4.0484Y-2.6063
X4.0484Y-2.8583
X4.0535Y-2.3425
X4.1256Y-1.8661
X4.1693Y-3.4449
X4.1732Y-3.3465
X4.222Y-2.5118
X4.3535Y-2.3425
X4.4256Y-1.8661
X4.4693Y-3.4449
X4.4732Y-3.3465
X4.5079Y-1.1732
X4.5079Y-1.2756
X4.5913Y-2.7
X4.5913Y-3.0
X4.748Y-2.4567
X4.748Y-2.7567
X4.748Y-2.8732
X4.748Y-3.1732
X4.8079Y-1.1732
X4.8079Y-1.2756
X5.6335Y-1.4291
X5.6339Y-1.5276
X5.6378Y-1.6378
X5.9335Y-1.4291
X5.9339Y-1.5276
X5.9378Y-1.6378
X6.3386Y-1.395
X6.3386Y-1.695
T3
X3.5484Y-2.9634
X3.5984Y-2.9134
X3.5984Y-3.0134
X3.9185Y-3.3909
X3.9685Y-3.3409
X3.9685Y-3.4409
X4.5457Y-1.4567
X4.5957Y-1.4067
X4.6457Y-1.4567
X6.076Y-1.6418
X6.126Y-1.5918
X6.126Y-1.6918
T4
X2.4545Y-3.3201
X2.5545Y-3.3201
X2.6545Y-3.3201
X2.7545Y-3.3201
X2.8545Y-3.3201
X2.9545Y-3.3201
X3.5354Y-2.1102
X3.6354Y-2.0102
X3.6354Y-2.2102
X3.8465Y-1.2441
X3.9465Y-1.2441
X4.0465Y-1.2441
X4.1102Y-2.1024
X4.1465Y-1.2441
X4.2102Y-2.0024
X4.2102Y-2.2024
X4.2465Y-1.2441
X4.3465Y-1.2441
X5.1594Y-2.4602
X5.1614Y-3.4567
X5.2594Y-2.4602
X5.2614Y-3.4567
X5.3594Y-2.4602
X5.3614Y-3.4567
X5.4594Y-2.4602
X5.4614Y-3.4567
X5.5594Y-2.4602
X5.5614Y-3.4567
X5.6594Y-2.4602
X5.6614Y-3.4567
X5.7594Y-2.4602
X5.7614Y-3.4567
X5.8594Y-2.4602
X5.8614Y-3.4567
X5.9594Y-2.4602
X5.9614Y-3.4567
X6.0594Y-2.4602
X6.0614Y-3.4567
X6.1594Y-2.4602
X6.1614Y-3.4567
X6.2594Y-2.4602
X6.2614Y-3.4567
X6.3594Y-2.4602
X6.3614Y-3.4567
X6.4594Y-2.4602
X6.4614Y-3.4567
X6.5594Y-2.4602
X6.5614Y-3.4567
X6.6594Y-2.4602
X6.6614Y-3.4567
X6.7594Y-2.4602
X6.7614Y-3.4567
X6.8594Y-2.4602
X6.8614Y-3.4567
X6.9594Y-2.4602
X6.9614Y-3.4567
T5
X3.7409Y-3.1181
X3.811Y-2.7323
X3.811Y-2.9843
X3.8394Y-3.1181
X3.874Y-2.0709
X3.874Y-2.1693
X4.0079Y-2.7323
X4.0079Y-2.9843
X4.1732Y-2.7
X4.1732Y-2.8
X4.1732Y-2.9
X4.1732Y-3.0
X4.1772Y-3.2441
X4.2756Y-3.2441
X4.2913Y-3.126
X4.3157Y-2.5433
X4.3197Y-2.4409
X4.4181Y-2.4409
X4.4567Y-2.1575
X4.4567Y-2.2559
X4.4732Y-2.7
X4.4732Y-2.8
X4.4732Y-2.9
X4.4732Y-3.0
X4.5472Y-3.248
X4.5913Y-3.126
X4.6024Y-1.8346
X4.6157Y-2.5433
X4.6213Y-1.9756
X4.6213Y-2.0756
X4.6213Y-2.1756
X4.6213Y-2.2756
X4.6457Y-3.248
X4.7008Y-1.8346
X4.7717Y-1.374
X4.7717Y-1.4724
X4.9213Y-1.9756
X4.9213Y-2.0756
X4.9213Y-2.1756
X4.9213Y-2.2756
X5.4272Y-1.7598
X5.5256Y-1.7598
X5.8346Y-1.7874
X5.9331Y-1.7874
X6.4449Y-1.3976
X6.4449Y-1.4961
T6
X5.5283Y-1.1496
X5.5283Y-1.2496
X5.6283Y-1.1496
X5.6283Y-1.2496
X5.7283Y-1.1496
X5.7283Y-1.2496
X5.8283Y-1.1496
X5.8283Y-1.2496
X5.9283Y-1.1496
X5.9283Y-1.2496
X6.0283Y-1.1496
X6.0283Y-1.2496
X6.1283Y-1.1496
X6.1283Y-1.2496
X6.2283Y-1.1496
X6.2283Y-1.2496
X6.3283Y-1.1496
X6.3283Y-1.2496
X6.4283Y-1.1496
X6.4283Y-1.2496
X6.5283Y-1.1496
X6.5283Y-1.2496
X6.6283Y-1.1496
X6.6283Y-1.2496
X6.7283Y-1.1496
X6.7283Y-1.2457
T7
X2.6008Y-1.748
X2.6559Y-1.4329
X2.7008Y-1.748
X2.7559Y-1.4329
X2.8305Y-1.748
X2.9305Y-1.748
X3.0079Y-1.4331
X3.0614Y-1.748
X3.1079Y-1.4331
X3.1614Y-1.748
X3.3882Y-3.4173
X3.3882Y-3.5173
X3.3882Y-3.6173
X3.4882Y-3.4173
X3.4882Y-3.5173
X3.4882Y-3.6173
T8
X3.8819Y-1.8622
X3.9819Y-1.8622
X5.1024Y-1.4409
X5.1024Y-1.6378
X5.2441Y-2.0315
X5.2441Y-2.2283
X5.6378Y-2.0087
X5.6378Y-2.1087
X5.6378Y-2.2087
X6.1142Y-2.0039
X6.1142Y-2.2008
T9
X2.3189Y-2.5197
X2.3189Y-2.6969
X2.5748Y-2.5197
X2.5748Y-2.6969
X2.752Y-2.1654
X2.752Y-2.3425
X2.752Y-2.5197
X2.752Y-2.6969
X2.7559Y-2.8622
X2.7559Y-3.0394
X3.0079Y-2.1654
X3.0079Y-2.3425
X3.0079Y-2.5197
X3.0079Y-2.6969
X3.0118Y-2.8622
X3.0118Y-3.0394
X3.185Y-2.5197
X3.185Y-2.6969
X3.4409Y-2.5197
X3.4409Y-2.6969
X6.9213Y-1.4772
X6.9213Y-1.6772
T10
X6.7559Y-1.909
T11
X6.628Y-2.0861
T12
X6.8839Y-2.0861
M30
