%TF.GenerationSoftware,KiCad,Pcbnew,7.0.1*%
%TF.CreationDate,2023-08-20T15:53:23+02:00*%
%TF.ProjectId,GewitterMonitorAntenne,47657769-7474-4657-924d-6f6e69746f72,rev?*%
%TF.SameCoordinates,Original*%
%TF.FileFunction,Copper,L2,Bot*%
%TF.FilePolarity,Positive*%
%FSLAX46Y46*%
G04 Gerber Fmt 4.6, Leading zero omitted, Abs format (unit mm)*
G04 Created by KiCad (PCBNEW 7.0.1) date 2023-08-20 15:53:23*
%MOMM*%
%LPD*%
G01*
G04 APERTURE LIST*
G04 Aperture macros list*
%AMRoundRect*
0 Rectangle with rounded corners*
0 $1 Rounding radius*
0 $2 $3 $4 $5 $6 $7 $8 $9 X,Y pos of 4 corners*
0 Add a 4 corners polygon primitive as box body*
4,1,4,$2,$3,$4,$5,$6,$7,$8,$9,$2,$3,0*
0 Add four circle primitives for the rounded corners*
1,1,$1+$1,$2,$3*
1,1,$1+$1,$4,$5*
1,1,$1+$1,$6,$7*
1,1,$1+$1,$8,$9*
0 Add four rect primitives between the rounded corners*
20,1,$1+$1,$2,$3,$4,$5,0*
20,1,$1+$1,$4,$5,$6,$7,0*
20,1,$1+$1,$6,$7,$8,$9,0*
20,1,$1+$1,$8,$9,$2,$3,0*%
G04 Aperture macros list end*
%TA.AperFunction,ComponentPad*%
%ADD10C,1.524000*%
%TD*%
%TA.AperFunction,ComponentPad*%
%ADD11R,1.600000X1.600000*%
%TD*%
%TA.AperFunction,ComponentPad*%
%ADD12C,1.600000*%
%TD*%
%TA.AperFunction,ComponentPad*%
%ADD13RoundRect,0.275000X0.275000X0.625000X-0.275000X0.625000X-0.275000X-0.625000X0.275000X-0.625000X0*%
%TD*%
%TA.AperFunction,ComponentPad*%
%ADD14R,1.100000X1.800000*%
%TD*%
%TA.AperFunction,ComponentPad*%
%ADD15C,1.400000*%
%TD*%
%TA.AperFunction,ComponentPad*%
%ADD16O,1.400000X1.400000*%
%TD*%
%TA.AperFunction,ComponentPad*%
%ADD17R,1.700000X1.700000*%
%TD*%
%TA.AperFunction,ComponentPad*%
%ADD18O,1.700000X1.700000*%
%TD*%
%TA.AperFunction,ComponentPad*%
%ADD19C,2.000000*%
%TD*%
%TA.AperFunction,Conductor*%
%ADD20C,0.250000*%
%TD*%
G04 APERTURE END LIST*
D10*
%TO.P,L1,1,1*%
%TO.N,Net-(U1-In)*%
X141500000Y-71800000D03*
%TO.P,L1,2,2*%
%TO.N,Net-(C5-Pad2)*%
X141500000Y-77600000D03*
%TD*%
%TO.P,L2,1,1*%
%TO.N,Net-(U2-In)*%
X141500000Y-81500000D03*
%TO.P,L2,2,2*%
%TO.N,Net-(C7-Pad2)*%
X141500000Y-87300000D03*
%TD*%
D11*
%TO.P,C2,1*%
%TO.N,Net-(J1-Pin_2)*%
X163000000Y-69700000D03*
D12*
%TO.P,C2,2*%
%TO.N,GND*%
X163000000Y-72200000D03*
%TD*%
%TO.P,C11,1*%
%TO.N,Net-(U2-Out)*%
X168400000Y-93800000D03*
%TO.P,C11,2*%
%TO.N,Net-(J1-Pin_3)*%
X168400000Y-88800000D03*
%TD*%
%TO.P,C6,1*%
%TO.N,Net-(C5-Pad2)*%
X152140000Y-77200000D03*
%TO.P,C6,2*%
%TO.N,GND*%
X157140000Y-77200000D03*
%TD*%
%TO.P,C1,2*%
%TO.N,GND*%
X164900000Y-77200000D03*
%TO.P,C1,1*%
%TO.N,Net-(J1-Pin_2)*%
X159900000Y-77200000D03*
%TD*%
D13*
%TO.P,U2,3,Out*%
%TO.N,Net-(U2-Out)*%
X153800000Y-84400000D03*
%TO.P,U2,2,In*%
%TO.N,Net-(U2-In)*%
X155070000Y-86470000D03*
D14*
%TO.P,U2,1,GND*%
%TO.N,GND*%
X156340000Y-84400000D03*
%TD*%
%TO.P,U1,1,GND*%
%TO.N,GND*%
X156340000Y-68300000D03*
D13*
%TO.P,U1,2,In*%
%TO.N,Net-(U1-In)*%
X155070000Y-70370000D03*
%TO.P,U1,3,Out*%
%TO.N,Net-(U1-Out)*%
X153800000Y-68300000D03*
%TD*%
D15*
%TO.P,R4,1*%
%TO.N,Net-(J1-Pin_1)*%
X163800000Y-80800000D03*
D16*
%TO.P,R4,2*%
%TO.N,Net-(U2-Out)*%
X156180000Y-80800000D03*
%TD*%
D15*
%TO.P,R3,1*%
%TO.N,Net-(U2-In)*%
X146280000Y-80800000D03*
D16*
%TO.P,R3,2*%
%TO.N,Net-(U2-Out)*%
X153900000Y-80800000D03*
%TD*%
D15*
%TO.P,R2,1*%
%TO.N,Net-(U1-In)*%
X146180000Y-64700000D03*
D16*
%TO.P,R2,2*%
%TO.N,Net-(U1-Out)*%
X153800000Y-64700000D03*
%TD*%
D15*
%TO.P,R1,1*%
%TO.N,Net-(J1-Pin_2)*%
X163820000Y-64700000D03*
D16*
%TO.P,R1,2*%
%TO.N,Net-(U1-Out)*%
X156200000Y-64700000D03*
%TD*%
D17*
%TO.P,J1,1,Pin_1*%
%TO.N,Net-(J1-Pin_1)*%
X172160000Y-77220000D03*
D18*
%TO.P,J1,2,Pin_2*%
%TO.N,Net-(J1-Pin_2)*%
X174700000Y-77220000D03*
%TO.P,J1,3,Pin_3*%
%TO.N,Net-(J1-Pin_3)*%
X172160000Y-79760000D03*
%TO.P,J1,4,Pin_4*%
%TO.N,Net-(J1-Pin_4)*%
X174700000Y-79760000D03*
%TO.P,J1,5,Pin_5*%
%TO.N,GND*%
X172160000Y-82300000D03*
%TO.P,J1,6,Pin_6*%
X174700000Y-82300000D03*
%TD*%
D11*
%TO.P,C12,1*%
%TO.N,Net-(J1-Pin_1)*%
X162900000Y-86000000D03*
D12*
%TO.P,C12,2*%
%TO.N,GND*%
X162900000Y-88500000D03*
%TD*%
%TO.P,C10,1*%
%TO.N,Net-(J1-Pin_1)*%
X160000000Y-93500000D03*
%TO.P,C10,2*%
%TO.N,GND*%
X165000000Y-93500000D03*
%TD*%
%TO.P,C9,2*%
%TO.N,GND*%
X157300000Y-89900000D03*
%TO.P,C9,1*%
%TO.N,Net-(U2-Out)*%
X152300000Y-89900000D03*
%TD*%
%TO.P,C8,1*%
%TO.N,Net-(C7-Pad2)*%
X152300000Y-93500000D03*
%TO.P,C8,2*%
%TO.N,GND*%
X157300000Y-93500000D03*
%TD*%
D19*
%TO.P,C7,1*%
%TO.N,Net-(U2-In)*%
X148100000Y-84400000D03*
%TO.P,C7,2*%
%TO.N,Net-(C7-Pad2)*%
X148100000Y-91900000D03*
%TD*%
%TO.P,C5,1*%
%TO.N,Net-(U1-In)*%
X148100000Y-68100000D03*
%TO.P,C5,2*%
%TO.N,Net-(C5-Pad2)*%
X148100000Y-75600000D03*
%TD*%
D12*
%TO.P,C4,1*%
%TO.N,Net-(U1-Out)*%
X152100000Y-73700000D03*
%TO.P,C4,2*%
%TO.N,GND*%
X157100000Y-73700000D03*
%TD*%
%TO.P,C3,1*%
%TO.N,Net-(U1-Out)*%
X168600000Y-64800000D03*
%TO.P,C3,2*%
%TO.N,Net-(J1-Pin_4)*%
X168600000Y-69800000D03*
%TD*%
D20*
%TO.N,Net-(U2-Out)*%
X152300000Y-86300000D02*
X153800000Y-84800000D01*
X152300000Y-89900000D02*
X152300000Y-86300000D01*
%TO.N,GND*%
X157300000Y-89900000D02*
X157300000Y-93500000D01*
X162900000Y-91400000D02*
X165000000Y-93500000D01*
X162900000Y-88500000D02*
X162900000Y-91400000D01*
X161500000Y-89900000D02*
X162900000Y-88500000D01*
X157300000Y-89900000D02*
X161500000Y-89900000D01*
X157300000Y-85760000D02*
X157300000Y-89900000D01*
X156340000Y-84800000D02*
X157300000Y-85760000D01*
X157939999Y-83200001D02*
X156340000Y-84800000D01*
X157939999Y-77999999D02*
X157939999Y-83200001D01*
X157140000Y-77200000D02*
X157939999Y-77999999D01*
X172160000Y-82300000D02*
X169400000Y-82300000D01*
X169400000Y-82300000D02*
X164300000Y-77200000D01*
X174700000Y-82300000D02*
X172160000Y-82300000D01*
%TO.N,Net-(U1-Out)*%
X152100000Y-69700000D02*
X152100000Y-73700000D01*
X153100000Y-68700000D02*
X152100000Y-69700000D01*
X153800000Y-68700000D02*
X153100000Y-68700000D01*
%TO.N,GND*%
X157140000Y-73740000D02*
X157100000Y-73700000D01*
X157140000Y-77200000D02*
X157140000Y-73740000D01*
X163000000Y-75300000D02*
X164900000Y-77200000D01*
X163000000Y-72200000D02*
X163000000Y-75300000D01*
X157100000Y-73700000D02*
X161500000Y-73700000D01*
X161500000Y-73700000D02*
X163000000Y-72200000D01*
X157100000Y-72500000D02*
X157100000Y-73700000D01*
X157800000Y-71800000D02*
X157100000Y-72500000D01*
X157800000Y-70160000D02*
X157800000Y-71800000D01*
X156340000Y-68700000D02*
X157800000Y-70160000D01*
%TD*%
%TA.AperFunction,Conductor*%
%TO.N,GND*%
G36*
X178037500Y-62617113D02*
G01*
X178082887Y-62662500D01*
X178099500Y-62724500D01*
X178099500Y-96475500D01*
X178082887Y-96537500D01*
X178037500Y-96582887D01*
X177975500Y-96599500D01*
X137324500Y-96599500D01*
X137262500Y-96582887D01*
X137217113Y-96537500D01*
X137200500Y-96475500D01*
X137200500Y-92767764D01*
X139345787Y-92767764D01*
X139375413Y-93037016D01*
X139409998Y-93169304D01*
X139443928Y-93299088D01*
X139529307Y-93500001D01*
X139549871Y-93548392D01*
X139690982Y-93779611D01*
X139864253Y-93987818D01*
X139864255Y-93987820D01*
X140065998Y-94168582D01*
X140291910Y-94318044D01*
X140336910Y-94339139D01*
X140537177Y-94433021D01*
X140759960Y-94500046D01*
X140796569Y-94511060D01*
X141064561Y-94550500D01*
X141267631Y-94550500D01*
X141267634Y-94550500D01*
X141470156Y-94535677D01*
X141470155Y-94535677D01*
X141734553Y-94476780D01*
X141987558Y-94380014D01*
X142223777Y-94247441D01*
X142438177Y-94081888D01*
X142626186Y-93886881D01*
X142783799Y-93666579D01*
X142869443Y-93499999D01*
X150994531Y-93499999D01*
X151014364Y-93726689D01*
X151073261Y-93946497D01*
X151169432Y-94152735D01*
X151299953Y-94339140D01*
X151460859Y-94500046D01*
X151647264Y-94630567D01*
X151647265Y-94630567D01*
X151647266Y-94630568D01*
X151853504Y-94726739D01*
X152073308Y-94785635D01*
X152300000Y-94805468D01*
X152526692Y-94785635D01*
X152746496Y-94726739D01*
X152952734Y-94630568D01*
X153026344Y-94579026D01*
X156574526Y-94579026D01*
X156647515Y-94630133D01*
X156853673Y-94726266D01*
X157073397Y-94785141D01*
X157300000Y-94804966D01*
X157526602Y-94785141D01*
X157746326Y-94726266D01*
X157952480Y-94630134D01*
X158025472Y-94579025D01*
X157300001Y-93853553D01*
X157300000Y-93853553D01*
X156574526Y-94579025D01*
X156574526Y-94579026D01*
X153026344Y-94579026D01*
X153139139Y-94500047D01*
X153300047Y-94339139D01*
X153430568Y-94152734D01*
X153526739Y-93946496D01*
X153585635Y-93726692D01*
X153605468Y-93500000D01*
X153605468Y-93499999D01*
X155995033Y-93499999D01*
X156014858Y-93726602D01*
X156073733Y-93946326D01*
X156169866Y-94152484D01*
X156220972Y-94225471D01*
X156220974Y-94225472D01*
X156946446Y-93500001D01*
X157653553Y-93500001D01*
X158379025Y-94225472D01*
X158430134Y-94152480D01*
X158526266Y-93946325D01*
X158529966Y-93932520D01*
X158562059Y-93876932D01*
X158617647Y-93844838D01*
X158681834Y-93844838D01*
X158737422Y-93876932D01*
X158769516Y-93932519D01*
X158773261Y-93946497D01*
X158869432Y-94152735D01*
X158999953Y-94339140D01*
X159160859Y-94500046D01*
X159347264Y-94630567D01*
X159347265Y-94630567D01*
X159347266Y-94630568D01*
X159553504Y-94726739D01*
X159773308Y-94785635D01*
X160000000Y-94805468D01*
X160226692Y-94785635D01*
X160446496Y-94726739D01*
X160652734Y-94630568D01*
X160726344Y-94579026D01*
X164274526Y-94579026D01*
X164347515Y-94630133D01*
X164553673Y-94726266D01*
X164773397Y-94785141D01*
X165000000Y-94804966D01*
X165226602Y-94785141D01*
X165446326Y-94726266D01*
X165652480Y-94630134D01*
X165725472Y-94579025D01*
X165000001Y-93853553D01*
X165000000Y-93853553D01*
X164274526Y-94579025D01*
X164274526Y-94579026D01*
X160726344Y-94579026D01*
X160839139Y-94500047D01*
X161000047Y-94339139D01*
X161130568Y-94152734D01*
X161226739Y-93946496D01*
X161285635Y-93726692D01*
X161305468Y-93500000D01*
X161305468Y-93499999D01*
X163695033Y-93499999D01*
X163714858Y-93726602D01*
X163773733Y-93946326D01*
X163869866Y-94152484D01*
X163920972Y-94225471D01*
X163920974Y-94225472D01*
X164646446Y-93500001D01*
X165353553Y-93500001D01*
X166079025Y-94225472D01*
X166130134Y-94152480D01*
X166226266Y-93946326D01*
X166265474Y-93800000D01*
X167094531Y-93800000D01*
X167114364Y-94026689D01*
X167173261Y-94246497D01*
X167269432Y-94452735D01*
X167399953Y-94639140D01*
X167560859Y-94800046D01*
X167747264Y-94930567D01*
X167747265Y-94930567D01*
X167747266Y-94930568D01*
X167953504Y-95026739D01*
X168173308Y-95085635D01*
X168400000Y-95105468D01*
X168626692Y-95085635D01*
X168846496Y-95026739D01*
X169052734Y-94930568D01*
X169239139Y-94800047D01*
X169400047Y-94639139D01*
X169530568Y-94452734D01*
X169626739Y-94246496D01*
X169685635Y-94026692D01*
X169705468Y-93800000D01*
X169685635Y-93573308D01*
X169626739Y-93353504D01*
X169530568Y-93147266D01*
X169474702Y-93067481D01*
X169400046Y-92960859D01*
X169239140Y-92799953D01*
X169193169Y-92767764D01*
X172345787Y-92767764D01*
X172375413Y-93037016D01*
X172409998Y-93169304D01*
X172443928Y-93299088D01*
X172529307Y-93500001D01*
X172549871Y-93548392D01*
X172690982Y-93779611D01*
X172864253Y-93987818D01*
X172864255Y-93987820D01*
X173065998Y-94168582D01*
X173291910Y-94318044D01*
X173336910Y-94339139D01*
X173537177Y-94433021D01*
X173759960Y-94500046D01*
X173796569Y-94511060D01*
X174064561Y-94550500D01*
X174267631Y-94550500D01*
X174267634Y-94550500D01*
X174470156Y-94535677D01*
X174470155Y-94535677D01*
X174734553Y-94476780D01*
X174987558Y-94380014D01*
X175223777Y-94247441D01*
X175438177Y-94081888D01*
X175626186Y-93886881D01*
X175783799Y-93666579D01*
X175907656Y-93425675D01*
X175995118Y-93169305D01*
X176044319Y-92902933D01*
X176054212Y-92632235D01*
X176024586Y-92362982D01*
X175956072Y-92100912D01*
X175850130Y-91851610D01*
X175709018Y-91620390D01*
X175709017Y-91620388D01*
X175535746Y-91412181D01*
X175430758Y-91318112D01*
X175334002Y-91231418D01*
X175108090Y-91081956D01*
X175108086Y-91081954D01*
X174862822Y-90966978D01*
X174603437Y-90888941D01*
X174603431Y-90888940D01*
X174335439Y-90849500D01*
X174132369Y-90849500D01*
X174132366Y-90849500D01*
X173929843Y-90864322D01*
X173665449Y-90923219D01*
X173412441Y-91019986D01*
X173176223Y-91152559D01*
X172961825Y-91318109D01*
X172773813Y-91513120D01*
X172616201Y-91733420D01*
X172492342Y-91974329D01*
X172404881Y-92230695D01*
X172355680Y-92497066D01*
X172345787Y-92767764D01*
X169193169Y-92767764D01*
X169052735Y-92669432D01*
X168846497Y-92573261D01*
X168626689Y-92514364D01*
X168400000Y-92494531D01*
X168173310Y-92514364D01*
X167953502Y-92573261D01*
X167747264Y-92669432D01*
X167560859Y-92799953D01*
X167399953Y-92960859D01*
X167269432Y-93147264D01*
X167173261Y-93353502D01*
X167114364Y-93573310D01*
X167094531Y-93800000D01*
X166265474Y-93800000D01*
X166285141Y-93726602D01*
X166304966Y-93499999D01*
X166285141Y-93273397D01*
X166226266Y-93053673D01*
X166130133Y-92847515D01*
X166079025Y-92774526D01*
X165353553Y-93500000D01*
X165353553Y-93500001D01*
X164646446Y-93500001D01*
X164646446Y-93499999D01*
X163920973Y-92774526D01*
X163920973Y-92774527D01*
X163869865Y-92847516D01*
X163773733Y-93053672D01*
X163714858Y-93273397D01*
X163695033Y-93499999D01*
X161305468Y-93499999D01*
X161285635Y-93273308D01*
X161226739Y-93053504D01*
X161130568Y-92847266D01*
X161097439Y-92799953D01*
X161000046Y-92660859D01*
X160839140Y-92499953D01*
X160726344Y-92420973D01*
X164274526Y-92420973D01*
X165000000Y-93146446D01*
X165000001Y-93146446D01*
X165725472Y-92420974D01*
X165725471Y-92420972D01*
X165652484Y-92369866D01*
X165446326Y-92273733D01*
X165226602Y-92214858D01*
X165000000Y-92195033D01*
X164773397Y-92214858D01*
X164553672Y-92273733D01*
X164347516Y-92369865D01*
X164274527Y-92420973D01*
X164274526Y-92420973D01*
X160726344Y-92420973D01*
X160652735Y-92369432D01*
X160446497Y-92273261D01*
X160226689Y-92214364D01*
X160000000Y-92194531D01*
X159773310Y-92214364D01*
X159553502Y-92273261D01*
X159347264Y-92369432D01*
X159160859Y-92499953D01*
X158999953Y-92660859D01*
X158869432Y-92847264D01*
X158773259Y-93053506D01*
X158769515Y-93067481D01*
X158737422Y-93123068D01*
X158681834Y-93155161D01*
X158617647Y-93155161D01*
X158562060Y-93123067D01*
X158529966Y-93067480D01*
X158526266Y-93053673D01*
X158430133Y-92847515D01*
X158379025Y-92774526D01*
X157653553Y-93500000D01*
X157653553Y-93500001D01*
X156946446Y-93500001D01*
X156946446Y-93500000D01*
X156220973Y-92774526D01*
X156220973Y-92774527D01*
X156169865Y-92847516D01*
X156073733Y-93053672D01*
X156014858Y-93273397D01*
X155995033Y-93499999D01*
X153605468Y-93499999D01*
X153585635Y-93273308D01*
X153526739Y-93053504D01*
X153430568Y-92847266D01*
X153397439Y-92799953D01*
X153300046Y-92660859D01*
X153139140Y-92499953D01*
X153026344Y-92420973D01*
X156574526Y-92420973D01*
X157300000Y-93146446D01*
X157300001Y-93146446D01*
X158025472Y-92420974D01*
X158025471Y-92420972D01*
X157952484Y-92369866D01*
X157746326Y-92273733D01*
X157526602Y-92214858D01*
X157300000Y-92195033D01*
X157073397Y-92214858D01*
X156853672Y-92273733D01*
X156647516Y-92369865D01*
X156574527Y-92420973D01*
X156574526Y-92420973D01*
X153026344Y-92420973D01*
X152952735Y-92369432D01*
X152746497Y-92273261D01*
X152526689Y-92214364D01*
X152300000Y-92194531D01*
X152073310Y-92214364D01*
X151853502Y-92273261D01*
X151647264Y-92369432D01*
X151460859Y-92499953D01*
X151299953Y-92660859D01*
X151169432Y-92847264D01*
X151073261Y-93053502D01*
X151014364Y-93273310D01*
X150994531Y-93499999D01*
X142869443Y-93499999D01*
X142907656Y-93425675D01*
X142995118Y-93169305D01*
X143044319Y-92902933D01*
X143054212Y-92632235D01*
X143024586Y-92362982D01*
X142956072Y-92100912D01*
X142870693Y-91899999D01*
X146594356Y-91899999D01*
X146614891Y-92147816D01*
X146614891Y-92147819D01*
X146614892Y-92147821D01*
X146675937Y-92388881D01*
X146720960Y-92491523D01*
X146775825Y-92616604D01*
X146775827Y-92616607D01*
X146911836Y-92824785D01*
X147080256Y-93007738D01*
X147117875Y-93037018D01*
X147276485Y-93160470D01*
X147276487Y-93160471D01*
X147276491Y-93160474D01*
X147495190Y-93278828D01*
X147730386Y-93359571D01*
X147975665Y-93400500D01*
X148224335Y-93400500D01*
X148469614Y-93359571D01*
X148704810Y-93278828D01*
X148923509Y-93160474D01*
X149119744Y-93007738D01*
X149288164Y-92824785D01*
X149424173Y-92616607D01*
X149524063Y-92388881D01*
X149585108Y-92147821D01*
X149605643Y-91900000D01*
X149585108Y-91652179D01*
X149524063Y-91411119D01*
X149433636Y-91204966D01*
X149424174Y-91183395D01*
X149387159Y-91126739D01*
X149288164Y-90975215D01*
X149119744Y-90792262D01*
X149051492Y-90739139D01*
X148923514Y-90639529D01*
X148923510Y-90639526D01*
X148923509Y-90639526D01*
X148704810Y-90521172D01*
X148704806Y-90521170D01*
X148704805Y-90521170D01*
X148469615Y-90440429D01*
X148224335Y-90399500D01*
X147975665Y-90399500D01*
X147730384Y-90440429D01*
X147495194Y-90521170D01*
X147276485Y-90639529D01*
X147080259Y-90792259D01*
X146911837Y-90975214D01*
X146775825Y-91183395D01*
X146685780Y-91388678D01*
X146675937Y-91411119D01*
X146650107Y-91513119D01*
X146614891Y-91652183D01*
X146594356Y-91899999D01*
X142870693Y-91899999D01*
X142850130Y-91851610D01*
X142709018Y-91620390D01*
X142709017Y-91620388D01*
X142535746Y-91412181D01*
X142430758Y-91318112D01*
X142334002Y-91231418D01*
X142108090Y-91081956D01*
X142108086Y-91081954D01*
X141862822Y-90966978D01*
X141603437Y-90888941D01*
X141603431Y-90888940D01*
X141335439Y-90849500D01*
X141132369Y-90849500D01*
X141132366Y-90849500D01*
X140929843Y-90864322D01*
X140665449Y-90923219D01*
X140412441Y-91019986D01*
X140176223Y-91152559D01*
X139961825Y-91318109D01*
X139773813Y-91513120D01*
X139616201Y-91733420D01*
X139492342Y-91974329D01*
X139404881Y-92230695D01*
X139355680Y-92497066D01*
X139345787Y-92767764D01*
X137200500Y-92767764D01*
X137200500Y-89899999D01*
X150994531Y-89899999D01*
X151014364Y-90126689D01*
X151073261Y-90346497D01*
X151169432Y-90552735D01*
X151299953Y-90739140D01*
X151460859Y-90900046D01*
X151647264Y-91030567D01*
X151647265Y-91030567D01*
X151647266Y-91030568D01*
X151853504Y-91126739D01*
X152073308Y-91185635D01*
X152300000Y-91205468D01*
X152526692Y-91185635D01*
X152746496Y-91126739D01*
X152952734Y-91030568D01*
X153026344Y-90979026D01*
X156574526Y-90979026D01*
X156647515Y-91030133D01*
X156853673Y-91126266D01*
X157073397Y-91185141D01*
X157300000Y-91204966D01*
X157526602Y-91185141D01*
X157746326Y-91126266D01*
X157952480Y-91030134D01*
X158025472Y-90979025D01*
X157300001Y-90253553D01*
X157300000Y-90253553D01*
X156574526Y-90979025D01*
X156574526Y-90979026D01*
X153026344Y-90979026D01*
X153139139Y-90900047D01*
X153300047Y-90739139D01*
X153430568Y-90552734D01*
X153526739Y-90346496D01*
X153585635Y-90126692D01*
X153605468Y-89900000D01*
X155995033Y-89900000D01*
X156014858Y-90126602D01*
X156073733Y-90346326D01*
X156169866Y-90552484D01*
X156220972Y-90625471D01*
X156220974Y-90625472D01*
X156946446Y-89900001D01*
X157653553Y-89900001D01*
X158379025Y-90625472D01*
X158430134Y-90552480D01*
X158526266Y-90346326D01*
X158585141Y-90126602D01*
X158604966Y-89900000D01*
X158585141Y-89673397D01*
X158559854Y-89579026D01*
X162174526Y-89579026D01*
X162247515Y-89630133D01*
X162453673Y-89726266D01*
X162673397Y-89785141D01*
X162899999Y-89804966D01*
X163126602Y-89785141D01*
X163346326Y-89726266D01*
X163552480Y-89630134D01*
X163625472Y-89579025D01*
X162900001Y-88853553D01*
X162900000Y-88853553D01*
X162174526Y-89579025D01*
X162174526Y-89579026D01*
X158559854Y-89579026D01*
X158526266Y-89453673D01*
X158430133Y-89247515D01*
X158379025Y-89174526D01*
X157653553Y-89900000D01*
X157653553Y-89900001D01*
X156946446Y-89900001D01*
X156946446Y-89900000D01*
X156220973Y-89174526D01*
X156220973Y-89174527D01*
X156169865Y-89247516D01*
X156073733Y-89453672D01*
X156014858Y-89673397D01*
X155995033Y-89900000D01*
X153605468Y-89900000D01*
X153585635Y-89673308D01*
X153526739Y-89453504D01*
X153430568Y-89247266D01*
X153415307Y-89225471D01*
X153300046Y-89060859D01*
X153139140Y-88899953D01*
X153026343Y-88820973D01*
X156574526Y-88820973D01*
X157300000Y-89546446D01*
X157300001Y-89546446D01*
X158025472Y-88820974D01*
X158025471Y-88820972D01*
X157952484Y-88769866D01*
X157746326Y-88673733D01*
X157526602Y-88614858D01*
X157300000Y-88595033D01*
X157073397Y-88614858D01*
X156853672Y-88673733D01*
X156647516Y-88769865D01*
X156574527Y-88820973D01*
X156574526Y-88820973D01*
X153026343Y-88820973D01*
X152978377Y-88787387D01*
X152939511Y-88743069D01*
X152925500Y-88685812D01*
X152925500Y-88500000D01*
X161595033Y-88500000D01*
X161614858Y-88726602D01*
X161673733Y-88946326D01*
X161769866Y-89152484D01*
X161820972Y-89225471D01*
X161820973Y-89225472D01*
X162546446Y-88500000D01*
X162546446Y-88499999D01*
X163253553Y-88499999D01*
X163979025Y-89225472D01*
X164030134Y-89152480D01*
X164126266Y-88946326D01*
X164165474Y-88799999D01*
X167094531Y-88799999D01*
X167114364Y-89026689D01*
X167173261Y-89246497D01*
X167269432Y-89452735D01*
X167399953Y-89639140D01*
X167560859Y-89800046D01*
X167747264Y-89930567D01*
X167747265Y-89930567D01*
X167747266Y-89930568D01*
X167953504Y-90026739D01*
X168173308Y-90085635D01*
X168400000Y-90105468D01*
X168626692Y-90085635D01*
X168846496Y-90026739D01*
X169052734Y-89930568D01*
X169239139Y-89800047D01*
X169400047Y-89639139D01*
X169530568Y-89452734D01*
X169626739Y-89246496D01*
X169685635Y-89026692D01*
X169705468Y-88800000D01*
X169685635Y-88573308D01*
X169626739Y-88353504D01*
X169530568Y-88147266D01*
X169507709Y-88114620D01*
X169400046Y-87960859D01*
X169239140Y-87799953D01*
X169052735Y-87669432D01*
X168846497Y-87573261D01*
X168626689Y-87514364D01*
X168399999Y-87494531D01*
X168173310Y-87514364D01*
X167953502Y-87573261D01*
X167747264Y-87669432D01*
X167560859Y-87799953D01*
X167399953Y-87960859D01*
X167269432Y-88147264D01*
X167173261Y-88353502D01*
X167114364Y-88573310D01*
X167094531Y-88799999D01*
X164165474Y-88799999D01*
X164185141Y-88726602D01*
X164204966Y-88500000D01*
X164185141Y-88273397D01*
X164126266Y-88053673D01*
X164030133Y-87847515D01*
X163979025Y-87774526D01*
X163253553Y-88499999D01*
X162546446Y-88499999D01*
X162546446Y-88499998D01*
X161820973Y-87774527D01*
X161769865Y-87847516D01*
X161673733Y-88053672D01*
X161614858Y-88273397D01*
X161595033Y-88500000D01*
X152925500Y-88500000D01*
X152925500Y-86610452D01*
X152934939Y-86562999D01*
X152961819Y-86522771D01*
X153647772Y-85836819D01*
X153688000Y-85809939D01*
X153735453Y-85800500D01*
X153895500Y-85800500D01*
X153957500Y-85817113D01*
X154002887Y-85862500D01*
X154019500Y-85924500D01*
X154019500Y-87138556D01*
X154034158Y-87268656D01*
X154091877Y-87433606D01*
X154184852Y-87581576D01*
X154308423Y-87705147D01*
X154456393Y-87798122D01*
X154621343Y-87855841D01*
X154751444Y-87870500D01*
X154751448Y-87870500D01*
X155388552Y-87870500D01*
X155388556Y-87870500D01*
X155492635Y-87858772D01*
X155518657Y-87855841D01*
X155683606Y-87798122D01*
X155831576Y-87705147D01*
X155955147Y-87581576D01*
X156048122Y-87433606D01*
X156105841Y-87268657D01*
X156120500Y-87138552D01*
X156120500Y-86847869D01*
X161599500Y-86847869D01*
X161605909Y-86907483D01*
X161656204Y-87042331D01*
X161742454Y-87157546D01*
X161857669Y-87243796D01*
X161992517Y-87294091D01*
X162052127Y-87300500D01*
X162052131Y-87300499D01*
X162058735Y-87301210D01*
X162058542Y-87303000D01*
X162114824Y-87318950D01*
X162160550Y-87368838D01*
X162169582Y-87416029D01*
X162900000Y-88146446D01*
X162900001Y-88146446D01*
X163630414Y-87416031D01*
X163639443Y-87368849D01*
X163685157Y-87318961D01*
X163741456Y-87302993D01*
X163741265Y-87301209D01*
X163747869Y-87300499D01*
X163747872Y-87300499D01*
X163807483Y-87294091D01*
X163942331Y-87243796D01*
X164057546Y-87157546D01*
X164143796Y-87042331D01*
X164194091Y-86907483D01*
X164200500Y-86847873D01*
X164200499Y-85152128D01*
X164194091Y-85092517D01*
X164143796Y-84957669D01*
X164057546Y-84842454D01*
X163942331Y-84756204D01*
X163807483Y-84705909D01*
X163747873Y-84699500D01*
X163747869Y-84699500D01*
X162052130Y-84699500D01*
X161992515Y-84705909D01*
X161857669Y-84756204D01*
X161742454Y-84842454D01*
X161656204Y-84957668D01*
X161605909Y-85092516D01*
X161599500Y-85152130D01*
X161599500Y-86847869D01*
X156120500Y-86847869D01*
X156120500Y-85801448D01*
X156120393Y-85800500D01*
X156105841Y-85671345D01*
X156105841Y-85671343D01*
X156096958Y-85645959D01*
X156090000Y-85605005D01*
X156090000Y-84650000D01*
X156590000Y-84650000D01*
X156590000Y-85800000D01*
X156937824Y-85800000D01*
X156997375Y-85793597D01*
X157132089Y-85743352D01*
X157247188Y-85657188D01*
X157333352Y-85542089D01*
X157383597Y-85407375D01*
X157390000Y-85347824D01*
X157390000Y-84650000D01*
X156590000Y-84650000D01*
X156090000Y-84650000D01*
X155290000Y-84650000D01*
X155290000Y-84945500D01*
X155273387Y-85007500D01*
X155228000Y-85052887D01*
X155166000Y-85069500D01*
X154974500Y-85069500D01*
X154912500Y-85052887D01*
X154867113Y-85007500D01*
X154850500Y-84945500D01*
X154850500Y-84150000D01*
X155290000Y-84150000D01*
X156090000Y-84150000D01*
X156090000Y-83000000D01*
X156590000Y-83000000D01*
X156590000Y-84150000D01*
X157390000Y-84150000D01*
X157390000Y-83452176D01*
X157383597Y-83392624D01*
X157333352Y-83257910D01*
X157247188Y-83142811D01*
X157132089Y-83056647D01*
X156997375Y-83006402D01*
X156937824Y-83000000D01*
X156590000Y-83000000D01*
X156090000Y-83000000D01*
X155742176Y-83000000D01*
X155682624Y-83006402D01*
X155547910Y-83056647D01*
X155432811Y-83142811D01*
X155346647Y-83257910D01*
X155296402Y-83392624D01*
X155290000Y-83452176D01*
X155290000Y-84150000D01*
X154850500Y-84150000D01*
X154850500Y-83731444D01*
X154835841Y-83601343D01*
X154778122Y-83436393D01*
X154685147Y-83288423D01*
X154561576Y-83164852D01*
X154413606Y-83071877D01*
X154248656Y-83014158D01*
X154118556Y-82999500D01*
X154118552Y-82999500D01*
X153481448Y-82999500D01*
X153481444Y-82999500D01*
X153351343Y-83014158D01*
X153186393Y-83071877D01*
X153038423Y-83164852D01*
X152914852Y-83288423D01*
X152821877Y-83436393D01*
X152764158Y-83601343D01*
X152749500Y-83731444D01*
X152749500Y-84914547D01*
X152740061Y-84962000D01*
X152713181Y-85002228D01*
X151916208Y-85799199D01*
X151900110Y-85812096D01*
X151852096Y-85863225D01*
X151849391Y-85866017D01*
X151829874Y-85885534D01*
X151827415Y-85888705D01*
X151819842Y-85897572D01*
X151789935Y-85929420D01*
X151780285Y-85946974D01*
X151769609Y-85963228D01*
X151757326Y-85979063D01*
X151739975Y-86019158D01*
X151734838Y-86029644D01*
X151713802Y-86067907D01*
X151708821Y-86087309D01*
X151702520Y-86105711D01*
X151694561Y-86124102D01*
X151687728Y-86167242D01*
X151685360Y-86178674D01*
X151674500Y-86220978D01*
X151674500Y-86241016D01*
X151672973Y-86260415D01*
X151669840Y-86280194D01*
X151673950Y-86323675D01*
X151674500Y-86335344D01*
X151674500Y-88685812D01*
X151660489Y-88743069D01*
X151621623Y-88787387D01*
X151460859Y-88899953D01*
X151299953Y-89060859D01*
X151169432Y-89247264D01*
X151073261Y-89453502D01*
X151014364Y-89673310D01*
X150994531Y-89899999D01*
X137200500Y-89899999D01*
X137200500Y-87300000D01*
X140232676Y-87300000D01*
X140251929Y-87520065D01*
X140309106Y-87733451D01*
X140373013Y-87870500D01*
X140402466Y-87933662D01*
X140529174Y-88114620D01*
X140685380Y-88270826D01*
X140866338Y-88397534D01*
X141066550Y-88490894D01*
X141279932Y-88548070D01*
X141500000Y-88567323D01*
X141720068Y-88548070D01*
X141933450Y-88490894D01*
X142133662Y-88397534D01*
X142314620Y-88270826D01*
X142470826Y-88114620D01*
X142597534Y-87933662D01*
X142690894Y-87733450D01*
X142748070Y-87520068D01*
X142767323Y-87300000D01*
X142748070Y-87079932D01*
X142690894Y-86866550D01*
X142597534Y-86666339D01*
X142470826Y-86485380D01*
X142314620Y-86329174D01*
X142133662Y-86202466D01*
X142082640Y-86178674D01*
X141933451Y-86109106D01*
X141720065Y-86051929D01*
X141499999Y-86032676D01*
X141279934Y-86051929D01*
X141066548Y-86109106D01*
X140866338Y-86202466D01*
X140685379Y-86329174D01*
X140529174Y-86485379D01*
X140402466Y-86666338D01*
X140309106Y-86866548D01*
X140251929Y-87079934D01*
X140232676Y-87300000D01*
X137200500Y-87300000D01*
X137200500Y-84399999D01*
X146594356Y-84399999D01*
X146614891Y-84647816D01*
X146614891Y-84647819D01*
X146614892Y-84647821D01*
X146675937Y-84888881D01*
X146706110Y-84957668D01*
X146775825Y-85116604D01*
X146775827Y-85116607D01*
X146911836Y-85324785D01*
X147080256Y-85507738D01*
X147080259Y-85507740D01*
X147276485Y-85660470D01*
X147276487Y-85660471D01*
X147276491Y-85660474D01*
X147495190Y-85778828D01*
X147730386Y-85859571D01*
X147975665Y-85900500D01*
X148224335Y-85900500D01*
X148469614Y-85859571D01*
X148704810Y-85778828D01*
X148923509Y-85660474D01*
X149119744Y-85507738D01*
X149288164Y-85324785D01*
X149424173Y-85116607D01*
X149524063Y-84888881D01*
X149585108Y-84647821D01*
X149605643Y-84400000D01*
X149585108Y-84152179D01*
X149524063Y-83911119D01*
X149424173Y-83683393D01*
X149288164Y-83475215D01*
X149119744Y-83292262D01*
X149075609Y-83257910D01*
X148923514Y-83139529D01*
X148923510Y-83139526D01*
X148923509Y-83139526D01*
X148704810Y-83021172D01*
X148704806Y-83021170D01*
X148704805Y-83021170D01*
X148469615Y-82940429D01*
X148224335Y-82899500D01*
X147975665Y-82899500D01*
X147730384Y-82940429D01*
X147495194Y-83021170D01*
X147276485Y-83139529D01*
X147080259Y-83292259D01*
X146911837Y-83475214D01*
X146775825Y-83683395D01*
X146675938Y-83911117D01*
X146614891Y-84152183D01*
X146594356Y-84399999D01*
X137200500Y-84399999D01*
X137200500Y-81499999D01*
X140232676Y-81499999D01*
X140251929Y-81720065D01*
X140309106Y-81933451D01*
X140363453Y-82049999D01*
X140402466Y-82133662D01*
X140529174Y-82314620D01*
X140685380Y-82470826D01*
X140866338Y-82597534D01*
X141066550Y-82690894D01*
X141279932Y-82748070D01*
X141500000Y-82767323D01*
X141720068Y-82748070D01*
X141933450Y-82690894D01*
X142133662Y-82597534D01*
X142201548Y-82550000D01*
X170829364Y-82550000D01*
X170886569Y-82763492D01*
X170986399Y-82977576D01*
X171121893Y-83171081D01*
X171288918Y-83338106D01*
X171482423Y-83473600D01*
X171696507Y-83573430D01*
X171909999Y-83630635D01*
X171910000Y-83630636D01*
X171910000Y-82550000D01*
X172410000Y-82550000D01*
X172410000Y-83630635D01*
X172623492Y-83573430D01*
X172837576Y-83473600D01*
X173031081Y-83338106D01*
X173198106Y-83171081D01*
X173328425Y-82984968D01*
X173372743Y-82946103D01*
X173430000Y-82932092D01*
X173487257Y-82946103D01*
X173531575Y-82984968D01*
X173661893Y-83171081D01*
X173828918Y-83338106D01*
X174022423Y-83473600D01*
X174236507Y-83573430D01*
X174449999Y-83630635D01*
X174450000Y-83630636D01*
X174450000Y-82550000D01*
X174950000Y-82550000D01*
X174950000Y-83630635D01*
X175163492Y-83573430D01*
X175377576Y-83473600D01*
X175571081Y-83338106D01*
X175738106Y-83171081D01*
X175873600Y-82977576D01*
X175973430Y-82763492D01*
X176030636Y-82550000D01*
X174950000Y-82550000D01*
X174450000Y-82550000D01*
X172410000Y-82550000D01*
X171910000Y-82550000D01*
X170829364Y-82550000D01*
X142201548Y-82550000D01*
X142314620Y-82470826D01*
X142470826Y-82314620D01*
X142597534Y-82133662D01*
X142690894Y-81933450D01*
X142748070Y-81720068D01*
X142767323Y-81500000D01*
X142748070Y-81279932D01*
X142690894Y-81066550D01*
X142597534Y-80866339D01*
X142551083Y-80800000D01*
X145074357Y-80800000D01*
X145094885Y-81021537D01*
X145155769Y-81235526D01*
X145254941Y-81434688D01*
X145389019Y-81612237D01*
X145553437Y-81762124D01*
X145742595Y-81879245D01*
X145742597Y-81879245D01*
X145742599Y-81879247D01*
X145950060Y-81959618D01*
X146168757Y-82000500D01*
X146391241Y-82000500D01*
X146391243Y-82000500D01*
X146609940Y-81959618D01*
X146817401Y-81879247D01*
X147006562Y-81762124D01*
X147170981Y-81612236D01*
X147305058Y-81434689D01*
X147404229Y-81235528D01*
X147465115Y-81021536D01*
X147485643Y-80800000D01*
X152694357Y-80800000D01*
X152714885Y-81021537D01*
X152775769Y-81235526D01*
X152874941Y-81434688D01*
X153009019Y-81612237D01*
X153173437Y-81762124D01*
X153362595Y-81879245D01*
X153362597Y-81879245D01*
X153362599Y-81879247D01*
X153570060Y-81959618D01*
X153788757Y-82000500D01*
X154011241Y-82000500D01*
X154011243Y-82000500D01*
X154229940Y-81959618D01*
X154437401Y-81879247D01*
X154626562Y-81762124D01*
X154790981Y-81612236D01*
X154925058Y-81434689D01*
X154925058Y-81434687D01*
X154925060Y-81434686D01*
X154929000Y-81426774D01*
X154974722Y-81376618D01*
X155040000Y-81358045D01*
X155105278Y-81376618D01*
X155151000Y-81426774D01*
X155154939Y-81434686D01*
X155289019Y-81612237D01*
X155453437Y-81762124D01*
X155642595Y-81879245D01*
X155642597Y-81879245D01*
X155642599Y-81879247D01*
X155850060Y-81959618D01*
X156068757Y-82000500D01*
X156291241Y-82000500D01*
X156291243Y-82000500D01*
X156509940Y-81959618D01*
X156717401Y-81879247D01*
X156906562Y-81762124D01*
X157070981Y-81612236D01*
X157205058Y-81434689D01*
X157304229Y-81235528D01*
X157365115Y-81021536D01*
X157385643Y-80800000D01*
X162594357Y-80800000D01*
X162614885Y-81021537D01*
X162675769Y-81235526D01*
X162774941Y-81434688D01*
X162909019Y-81612237D01*
X163073437Y-81762124D01*
X163262595Y-81879245D01*
X163262597Y-81879245D01*
X163262599Y-81879247D01*
X163470060Y-81959618D01*
X163688757Y-82000500D01*
X163911241Y-82000500D01*
X163911243Y-82000500D01*
X164129940Y-81959618D01*
X164337401Y-81879247D01*
X164526562Y-81762124D01*
X164690981Y-81612236D01*
X164825058Y-81434689D01*
X164924229Y-81235528D01*
X164985115Y-81021536D01*
X165005643Y-80800000D01*
X164985115Y-80578464D01*
X164962227Y-80498021D01*
X164924230Y-80364473D01*
X164825058Y-80165311D01*
X164690980Y-79987762D01*
X164526562Y-79837875D01*
X164400789Y-79760000D01*
X170804340Y-79760000D01*
X170824936Y-79995407D01*
X170869709Y-80162501D01*
X170886097Y-80223663D01*
X170985965Y-80437830D01*
X171121505Y-80631401D01*
X171288599Y-80798495D01*
X171474597Y-80928732D01*
X171513460Y-80973048D01*
X171527471Y-81030305D01*
X171513461Y-81087561D01*
X171474595Y-81131880D01*
X171288919Y-81261892D01*
X171121890Y-81428921D01*
X170986400Y-81622421D01*
X170886569Y-81836507D01*
X170829364Y-82049999D01*
X170829364Y-82050000D01*
X176030636Y-82050000D01*
X176030635Y-82049999D01*
X175973430Y-81836507D01*
X175873599Y-81622421D01*
X175738109Y-81428921D01*
X175571081Y-81261893D01*
X175385404Y-81131880D01*
X175346539Y-81087562D01*
X175332528Y-81030305D01*
X175346539Y-80973048D01*
X175385402Y-80928732D01*
X175571401Y-80798495D01*
X175738495Y-80631401D01*
X175874035Y-80437830D01*
X175973903Y-80223663D01*
X176035063Y-79995408D01*
X176055659Y-79760000D01*
X176035063Y-79524592D01*
X175973903Y-79296337D01*
X175874035Y-79082171D01*
X175738495Y-78888599D01*
X175571401Y-78721505D01*
X175385839Y-78591573D01*
X175346975Y-78547257D01*
X175332964Y-78490000D01*
X175346975Y-78432743D01*
X175385839Y-78388426D01*
X175571401Y-78258495D01*
X175738495Y-78091401D01*
X175874035Y-77897830D01*
X175973903Y-77683663D01*
X176035063Y-77455408D01*
X176055659Y-77220000D01*
X176050982Y-77166548D01*
X176035063Y-76984592D01*
X176030172Y-76966338D01*
X175973903Y-76756337D01*
X175874035Y-76542171D01*
X175738495Y-76348599D01*
X175571401Y-76181505D01*
X175377830Y-76045965D01*
X175163663Y-75946097D01*
X175102501Y-75929709D01*
X174935407Y-75884936D01*
X174700000Y-75864340D01*
X174464592Y-75884936D01*
X174236336Y-75946097D01*
X174022170Y-76045965D01*
X173828601Y-76181503D01*
X173706673Y-76303431D01*
X173653926Y-76334726D01*
X173592634Y-76336915D01*
X173537789Y-76309462D01*
X173502810Y-76259082D01*
X173480756Y-76199953D01*
X173453796Y-76127669D01*
X173367546Y-76012454D01*
X173252331Y-75926204D01*
X173117483Y-75875909D01*
X173057873Y-75869500D01*
X173057869Y-75869500D01*
X171262130Y-75869500D01*
X171202515Y-75875909D01*
X171067669Y-75926204D01*
X170952454Y-76012454D01*
X170866204Y-76127668D01*
X170839243Y-76199953D01*
X170815909Y-76262517D01*
X170810094Y-76316607D01*
X170809500Y-76322130D01*
X170809500Y-78117869D01*
X170815909Y-78177484D01*
X170824324Y-78200046D01*
X170866204Y-78312331D01*
X170952454Y-78427546D01*
X171067669Y-78513796D01*
X171157383Y-78547257D01*
X171199082Y-78562810D01*
X171249462Y-78597789D01*
X171276915Y-78652634D01*
X171274726Y-78713926D01*
X171243431Y-78766673D01*
X171121503Y-78888601D01*
X170985965Y-79082170D01*
X170886097Y-79296336D01*
X170824936Y-79524592D01*
X170804340Y-79760000D01*
X164400789Y-79760000D01*
X164337404Y-79720754D01*
X164276174Y-79697033D01*
X164129940Y-79640382D01*
X163911243Y-79599500D01*
X163688757Y-79599500D01*
X163470060Y-79640381D01*
X163470060Y-79640382D01*
X163262595Y-79720754D01*
X163073437Y-79837875D01*
X162909019Y-79987762D01*
X162774941Y-80165311D01*
X162675769Y-80364473D01*
X162614885Y-80578462D01*
X162594357Y-80800000D01*
X157385643Y-80800000D01*
X157365115Y-80578464D01*
X157342227Y-80498021D01*
X157304230Y-80364473D01*
X157205058Y-80165311D01*
X157070980Y-79987762D01*
X156906562Y-79837875D01*
X156717404Y-79720754D01*
X156656174Y-79697033D01*
X156509940Y-79640382D01*
X156291243Y-79599500D01*
X156068757Y-79599500D01*
X155850060Y-79640381D01*
X155850060Y-79640382D01*
X155642595Y-79720754D01*
X155453437Y-79837875D01*
X155289019Y-79987762D01*
X155154940Y-80165312D01*
X155150999Y-80173228D01*
X155105276Y-80223382D01*
X155040000Y-80241954D01*
X154974724Y-80223382D01*
X154929001Y-80173228D01*
X154925059Y-80165312D01*
X154790980Y-79987762D01*
X154626562Y-79837875D01*
X154437404Y-79720754D01*
X154376174Y-79697033D01*
X154229940Y-79640382D01*
X154011243Y-79599500D01*
X153788757Y-79599500D01*
X153570060Y-79640381D01*
X153570060Y-79640382D01*
X153362595Y-79720754D01*
X153173437Y-79837875D01*
X153009019Y-79987762D01*
X152874941Y-80165311D01*
X152775769Y-80364473D01*
X152714885Y-80578462D01*
X152694357Y-80800000D01*
X147485643Y-80800000D01*
X147465115Y-80578464D01*
X147442227Y-80498021D01*
X147404230Y-80364473D01*
X147305058Y-80165311D01*
X147170980Y-79987762D01*
X147006562Y-79837875D01*
X146817404Y-79720754D01*
X146756174Y-79697033D01*
X146609940Y-79640382D01*
X146391243Y-79599500D01*
X146168757Y-79599500D01*
X145950060Y-79640381D01*
X145950060Y-79640382D01*
X145742595Y-79720754D01*
X145553437Y-79837875D01*
X145389019Y-79987762D01*
X145254941Y-80165311D01*
X145155769Y-80364473D01*
X145094885Y-80578462D01*
X145074357Y-80800000D01*
X142551083Y-80800000D01*
X142470826Y-80685380D01*
X142314620Y-80529174D01*
X142133662Y-80402466D01*
X142113285Y-80392964D01*
X141933451Y-80309106D01*
X141720065Y-80251929D01*
X141500000Y-80232676D01*
X141279934Y-80251929D01*
X141066548Y-80309106D01*
X140866338Y-80402466D01*
X140685379Y-80529174D01*
X140529174Y-80685379D01*
X140402466Y-80866338D01*
X140309106Y-81066548D01*
X140251929Y-81279934D01*
X140232676Y-81499999D01*
X137200500Y-81499999D01*
X137200500Y-77599999D01*
X140232676Y-77599999D01*
X140251929Y-77820065D01*
X140309106Y-78033451D01*
X140342597Y-78105273D01*
X140402466Y-78233662D01*
X140529174Y-78414620D01*
X140685380Y-78570826D01*
X140866338Y-78697534D01*
X141066550Y-78790894D01*
X141279932Y-78848070D01*
X141500000Y-78867323D01*
X141720068Y-78848070D01*
X141933450Y-78790894D01*
X142133662Y-78697534D01*
X142314620Y-78570826D01*
X142470826Y-78414620D01*
X142597534Y-78233662D01*
X142690894Y-78033450D01*
X142748070Y-77820068D01*
X142767323Y-77600000D01*
X142748070Y-77379932D01*
X142699857Y-77199999D01*
X150834531Y-77199999D01*
X150854364Y-77426689D01*
X150913261Y-77646497D01*
X151009432Y-77852735D01*
X151139953Y-78039140D01*
X151300859Y-78200046D01*
X151487264Y-78330567D01*
X151487265Y-78330567D01*
X151487266Y-78330568D01*
X151693504Y-78426739D01*
X151913308Y-78485635D01*
X152140000Y-78505468D01*
X152366692Y-78485635D01*
X152586496Y-78426739D01*
X152792734Y-78330568D01*
X152866344Y-78279026D01*
X156414526Y-78279026D01*
X156487515Y-78330133D01*
X156693673Y-78426266D01*
X156913397Y-78485141D01*
X157140000Y-78504966D01*
X157366602Y-78485141D01*
X157586326Y-78426266D01*
X157792480Y-78330134D01*
X157865472Y-78279025D01*
X157140001Y-77553553D01*
X157140000Y-77553553D01*
X156414526Y-78279025D01*
X156414526Y-78279026D01*
X152866344Y-78279026D01*
X152979139Y-78200047D01*
X153140047Y-78039139D01*
X153270568Y-77852734D01*
X153366739Y-77646496D01*
X153425635Y-77426692D01*
X153445468Y-77200000D01*
X153445468Y-77199999D01*
X155835033Y-77199999D01*
X155854858Y-77426602D01*
X155913733Y-77646326D01*
X156009866Y-77852484D01*
X156060972Y-77925471D01*
X156060974Y-77925472D01*
X156786446Y-77200001D01*
X157493553Y-77200001D01*
X158219025Y-77925472D01*
X158270134Y-77852480D01*
X158366266Y-77646327D01*
X158399966Y-77520558D01*
X158432060Y-77464971D01*
X158487647Y-77432877D01*
X158551834Y-77432877D01*
X158607422Y-77464971D01*
X158639516Y-77520558D01*
X158673261Y-77646497D01*
X158769432Y-77852735D01*
X158899953Y-78039140D01*
X159060859Y-78200046D01*
X159247264Y-78330567D01*
X159247265Y-78330567D01*
X159247266Y-78330568D01*
X159453504Y-78426739D01*
X159673308Y-78485635D01*
X159900000Y-78505468D01*
X160126692Y-78485635D01*
X160346496Y-78426739D01*
X160552734Y-78330568D01*
X160626344Y-78279026D01*
X164174526Y-78279026D01*
X164247515Y-78330133D01*
X164453673Y-78426266D01*
X164673397Y-78485141D01*
X164900000Y-78504966D01*
X165126602Y-78485141D01*
X165346326Y-78426266D01*
X165552480Y-78330134D01*
X165625472Y-78279025D01*
X164900001Y-77553553D01*
X164900000Y-77553553D01*
X164174526Y-78279025D01*
X164174526Y-78279026D01*
X160626344Y-78279026D01*
X160739139Y-78200047D01*
X160900047Y-78039139D01*
X161030568Y-77852734D01*
X161126739Y-77646496D01*
X161185635Y-77426692D01*
X161205468Y-77200000D01*
X161205468Y-77199999D01*
X163595033Y-77199999D01*
X163614858Y-77426602D01*
X163673733Y-77646326D01*
X163769866Y-77852484D01*
X163820972Y-77925471D01*
X163820974Y-77925472D01*
X164546446Y-77200001D01*
X165253553Y-77200001D01*
X165979025Y-77925472D01*
X166030134Y-77852480D01*
X166126266Y-77646326D01*
X166185141Y-77426602D01*
X166204966Y-77199999D01*
X166185141Y-76973397D01*
X166126266Y-76753673D01*
X166030133Y-76547515D01*
X165979025Y-76474526D01*
X165253553Y-77200000D01*
X165253553Y-77200001D01*
X164546446Y-77200001D01*
X164546446Y-77200000D01*
X163820973Y-76474526D01*
X163820973Y-76474527D01*
X163769865Y-76547516D01*
X163673733Y-76753672D01*
X163614858Y-76973397D01*
X163595033Y-77199999D01*
X161205468Y-77199999D01*
X161185635Y-76973308D01*
X161126739Y-76753504D01*
X161030568Y-76547266D01*
X161027000Y-76542171D01*
X160900046Y-76360859D01*
X160739140Y-76199953D01*
X160626344Y-76120973D01*
X164174526Y-76120973D01*
X164900000Y-76846446D01*
X164900001Y-76846446D01*
X165625472Y-76120974D01*
X165625471Y-76120972D01*
X165552484Y-76069866D01*
X165346326Y-75973733D01*
X165126602Y-75914858D01*
X164900000Y-75895033D01*
X164673397Y-75914858D01*
X164453672Y-75973733D01*
X164247516Y-76069865D01*
X164174527Y-76120973D01*
X164174526Y-76120973D01*
X160626344Y-76120973D01*
X160552735Y-76069432D01*
X160346497Y-75973261D01*
X160126689Y-75914364D01*
X159900000Y-75894531D01*
X159673310Y-75914364D01*
X159453502Y-75973261D01*
X159247264Y-76069432D01*
X159060859Y-76199953D01*
X158899953Y-76360859D01*
X158769432Y-76547264D01*
X158673261Y-76753502D01*
X158639516Y-76879441D01*
X158607422Y-76935028D01*
X158551834Y-76967122D01*
X158487647Y-76967122D01*
X158432060Y-76935028D01*
X158399966Y-76879441D01*
X158366266Y-76753673D01*
X158270133Y-76547515D01*
X158219025Y-76474526D01*
X157493553Y-77200000D01*
X157493553Y-77200001D01*
X156786446Y-77200001D01*
X156786446Y-77200000D01*
X156060973Y-76474526D01*
X156060973Y-76474527D01*
X156009865Y-76547516D01*
X155913733Y-76753672D01*
X155854858Y-76973397D01*
X155835033Y-77199999D01*
X153445468Y-77199999D01*
X153425635Y-76973308D01*
X153366739Y-76753504D01*
X153270568Y-76547266D01*
X153267000Y-76542171D01*
X153140046Y-76360859D01*
X152979140Y-76199953D01*
X152866344Y-76120973D01*
X156414526Y-76120973D01*
X157140000Y-76846446D01*
X157140001Y-76846446D01*
X157865472Y-76120974D01*
X157865471Y-76120972D01*
X157792484Y-76069866D01*
X157586326Y-75973733D01*
X157366602Y-75914858D01*
X157140000Y-75895033D01*
X156913397Y-75914858D01*
X156693672Y-75973733D01*
X156487516Y-76069865D01*
X156414527Y-76120973D01*
X156414526Y-76120973D01*
X152866344Y-76120973D01*
X152792735Y-76069432D01*
X152586497Y-75973261D01*
X152366689Y-75914364D01*
X152140000Y-75894531D01*
X151913310Y-75914364D01*
X151693502Y-75973261D01*
X151487264Y-76069432D01*
X151300859Y-76199953D01*
X151139953Y-76360859D01*
X151009432Y-76547264D01*
X150913261Y-76753502D01*
X150854364Y-76973310D01*
X150834531Y-77199999D01*
X142699857Y-77199999D01*
X142690894Y-77166550D01*
X142597534Y-76966339D01*
X142470826Y-76785380D01*
X142314620Y-76629174D01*
X142133662Y-76502466D01*
X142133661Y-76502465D01*
X141933451Y-76409106D01*
X141720065Y-76351929D01*
X141500000Y-76332676D01*
X141279934Y-76351929D01*
X141066548Y-76409106D01*
X140866338Y-76502466D01*
X140685379Y-76629174D01*
X140529174Y-76785379D01*
X140402466Y-76966338D01*
X140309106Y-77166548D01*
X140251929Y-77379934D01*
X140232676Y-77599999D01*
X137200500Y-77599999D01*
X137200500Y-75600000D01*
X146594356Y-75600000D01*
X146614891Y-75847816D01*
X146614891Y-75847819D01*
X146614892Y-75847821D01*
X146675937Y-76088881D01*
X146692951Y-76127668D01*
X146775825Y-76316604D01*
X146775827Y-76316607D01*
X146911836Y-76524785D01*
X147080256Y-76707738D01*
X147080259Y-76707740D01*
X147276485Y-76860470D01*
X147276487Y-76860471D01*
X147276491Y-76860474D01*
X147495190Y-76978828D01*
X147730386Y-77059571D01*
X147975665Y-77100500D01*
X148224335Y-77100500D01*
X148469614Y-77059571D01*
X148704810Y-76978828D01*
X148923509Y-76860474D01*
X149119744Y-76707738D01*
X149288164Y-76524785D01*
X149424173Y-76316607D01*
X149524063Y-76088881D01*
X149585108Y-75847821D01*
X149605643Y-75600000D01*
X149585108Y-75352179D01*
X149524063Y-75111119D01*
X149424173Y-74883393D01*
X149288164Y-74675215D01*
X149119744Y-74492262D01*
X149097612Y-74475036D01*
X148923514Y-74339529D01*
X148923510Y-74339526D01*
X148923509Y-74339526D01*
X148704810Y-74221172D01*
X148704806Y-74221170D01*
X148704805Y-74221170D01*
X148469615Y-74140429D01*
X148224335Y-74099500D01*
X147975665Y-74099500D01*
X147730384Y-74140429D01*
X147495194Y-74221170D01*
X147276485Y-74339529D01*
X147080259Y-74492259D01*
X146911837Y-74675214D01*
X146775825Y-74883395D01*
X146675938Y-75111117D01*
X146614891Y-75352183D01*
X146594356Y-75600000D01*
X137200500Y-75600000D01*
X137200500Y-73700000D01*
X150794531Y-73700000D01*
X150814364Y-73926689D01*
X150873261Y-74146497D01*
X150969432Y-74352735D01*
X151099953Y-74539140D01*
X151260859Y-74700046D01*
X151447264Y-74830567D01*
X151447265Y-74830567D01*
X151447266Y-74830568D01*
X151653504Y-74926739D01*
X151873308Y-74985635D01*
X152100000Y-75005468D01*
X152326692Y-74985635D01*
X152546496Y-74926739D01*
X152752734Y-74830568D01*
X152826344Y-74779026D01*
X156374526Y-74779026D01*
X156447515Y-74830133D01*
X156653673Y-74926266D01*
X156873397Y-74985141D01*
X157100000Y-75004966D01*
X157326602Y-74985141D01*
X157546326Y-74926266D01*
X157752480Y-74830134D01*
X157825472Y-74779025D01*
X157100001Y-74053553D01*
X157100000Y-74053553D01*
X156374526Y-74779025D01*
X156374526Y-74779026D01*
X152826344Y-74779026D01*
X152939139Y-74700047D01*
X153100047Y-74539139D01*
X153230568Y-74352734D01*
X153326739Y-74146496D01*
X153385635Y-73926692D01*
X153405468Y-73700000D01*
X153405468Y-73699999D01*
X155795033Y-73699999D01*
X155814858Y-73926602D01*
X155873733Y-74146326D01*
X155969866Y-74352484D01*
X156020972Y-74425471D01*
X156020973Y-74425472D01*
X156746446Y-73700000D01*
X156746446Y-73699999D01*
X157453553Y-73699999D01*
X158179025Y-74425472D01*
X158230134Y-74352480D01*
X158326266Y-74146326D01*
X158385141Y-73926602D01*
X158404966Y-73699999D01*
X158385141Y-73473397D01*
X158333059Y-73279026D01*
X162274526Y-73279026D01*
X162347515Y-73330133D01*
X162553673Y-73426266D01*
X162773397Y-73485141D01*
X163000000Y-73504966D01*
X163226602Y-73485141D01*
X163446326Y-73426266D01*
X163652480Y-73330134D01*
X163725472Y-73279025D01*
X163000001Y-72553553D01*
X163000000Y-72553553D01*
X162274526Y-73279025D01*
X162274526Y-73279026D01*
X158333059Y-73279026D01*
X158326266Y-73253673D01*
X158230133Y-73047515D01*
X158179025Y-72974526D01*
X157453553Y-73699998D01*
X157453553Y-73699999D01*
X156746446Y-73699999D01*
X156746446Y-73699998D01*
X156020973Y-72974527D01*
X155969865Y-73047516D01*
X155873733Y-73253672D01*
X155814858Y-73473397D01*
X155795033Y-73699999D01*
X153405468Y-73699999D01*
X153385635Y-73473308D01*
X153326739Y-73253504D01*
X153230568Y-73047266D01*
X153191096Y-72990894D01*
X153100046Y-72860859D01*
X152939140Y-72699953D01*
X152826343Y-72620973D01*
X156374526Y-72620973D01*
X157100000Y-73346446D01*
X157100001Y-73346446D01*
X157825472Y-72620974D01*
X157825471Y-72620972D01*
X157752484Y-72569866D01*
X157546326Y-72473733D01*
X157326602Y-72414858D01*
X157099999Y-72395033D01*
X156873397Y-72414858D01*
X156653672Y-72473733D01*
X156447516Y-72569865D01*
X156374527Y-72620973D01*
X156374526Y-72620973D01*
X152826343Y-72620973D01*
X152778377Y-72587387D01*
X152739511Y-72543069D01*
X152725500Y-72485812D01*
X152725500Y-72200000D01*
X161695033Y-72200000D01*
X161714858Y-72426602D01*
X161773733Y-72646326D01*
X161869866Y-72852484D01*
X161920972Y-72925471D01*
X161920974Y-72925472D01*
X162646446Y-72200001D01*
X162646446Y-72200000D01*
X162646445Y-72199999D01*
X163353553Y-72199999D01*
X164079025Y-72925472D01*
X164130134Y-72852480D01*
X164226266Y-72646326D01*
X164285141Y-72426602D01*
X164304966Y-72200000D01*
X164285141Y-71973397D01*
X164226266Y-71753673D01*
X164130133Y-71547515D01*
X164079025Y-71474526D01*
X163353553Y-72199999D01*
X162646445Y-72199999D01*
X161920973Y-71474526D01*
X161920973Y-71474527D01*
X161869865Y-71547516D01*
X161773733Y-71753672D01*
X161714858Y-71973397D01*
X161695033Y-72200000D01*
X152725500Y-72200000D01*
X152725500Y-70010452D01*
X152734939Y-69962999D01*
X152761816Y-69922773D01*
X153036683Y-69647905D01*
X153083406Y-69618548D01*
X153138244Y-69612370D01*
X153172865Y-69624484D01*
X153173207Y-69623508D01*
X153351343Y-69685841D01*
X153481444Y-69700500D01*
X153481448Y-69700500D01*
X153895500Y-69700500D01*
X153957500Y-69717113D01*
X154002887Y-69762500D01*
X154019500Y-69824500D01*
X154019500Y-71038556D01*
X154034158Y-71168656D01*
X154091877Y-71333606D01*
X154184852Y-71481576D01*
X154308423Y-71605147D01*
X154456393Y-71698122D01*
X154621343Y-71755841D01*
X154751444Y-71770500D01*
X154751448Y-71770500D01*
X155388552Y-71770500D01*
X155388556Y-71770500D01*
X155492635Y-71758772D01*
X155518657Y-71755841D01*
X155683606Y-71698122D01*
X155831576Y-71605147D01*
X155955147Y-71481576D01*
X156048122Y-71333606D01*
X156105841Y-71168657D01*
X156108772Y-71142636D01*
X156120500Y-71038556D01*
X156120500Y-70547869D01*
X161699500Y-70547869D01*
X161699937Y-70551930D01*
X161705909Y-70607483D01*
X161756204Y-70742331D01*
X161842454Y-70857546D01*
X161957669Y-70943796D01*
X162092517Y-70994091D01*
X162152127Y-71000500D01*
X162152131Y-71000499D01*
X162158735Y-71001210D01*
X162158542Y-71003000D01*
X162214824Y-71018950D01*
X162260550Y-71068838D01*
X162269582Y-71116029D01*
X163000000Y-71846446D01*
X163000001Y-71846446D01*
X163730414Y-71116031D01*
X163739443Y-71068849D01*
X163785157Y-71018961D01*
X163841456Y-71002993D01*
X163841265Y-71001209D01*
X163847869Y-71000499D01*
X163847872Y-71000499D01*
X163907483Y-70994091D01*
X164042331Y-70943796D01*
X164157546Y-70857546D01*
X164243796Y-70742331D01*
X164294091Y-70607483D01*
X164300500Y-70547873D01*
X164300500Y-69799999D01*
X167294531Y-69799999D01*
X167314364Y-70026689D01*
X167373261Y-70246497D01*
X167469432Y-70452735D01*
X167599953Y-70639140D01*
X167760859Y-70800046D01*
X167947264Y-70930567D01*
X167947265Y-70930567D01*
X167947266Y-70930568D01*
X168153504Y-71026739D01*
X168373308Y-71085635D01*
X168600000Y-71105468D01*
X168826692Y-71085635D01*
X169046496Y-71026739D01*
X169252734Y-70930568D01*
X169439139Y-70800047D01*
X169600047Y-70639139D01*
X169730568Y-70452734D01*
X169826739Y-70246496D01*
X169885635Y-70026692D01*
X169905468Y-69800000D01*
X169885635Y-69573308D01*
X169826739Y-69353504D01*
X169730568Y-69147266D01*
X169721876Y-69134853D01*
X169600046Y-68960859D01*
X169439140Y-68799953D01*
X169252735Y-68669432D01*
X169046497Y-68573261D01*
X168826689Y-68514364D01*
X168600000Y-68494531D01*
X168373310Y-68514364D01*
X168153502Y-68573261D01*
X167947264Y-68669432D01*
X167760859Y-68799953D01*
X167599953Y-68960859D01*
X167469432Y-69147264D01*
X167373261Y-69353502D01*
X167314364Y-69573310D01*
X167294531Y-69799999D01*
X164300500Y-69799999D01*
X164300499Y-68852128D01*
X164294091Y-68792517D01*
X164243796Y-68657669D01*
X164157546Y-68542454D01*
X164042331Y-68456204D01*
X163907483Y-68405909D01*
X163847873Y-68399500D01*
X163847869Y-68399500D01*
X162152130Y-68399500D01*
X162092515Y-68405909D01*
X161957669Y-68456204D01*
X161842454Y-68542454D01*
X161756204Y-68657668D01*
X161705909Y-68792516D01*
X161699500Y-68852130D01*
X161699500Y-70547869D01*
X156120500Y-70547869D01*
X156120500Y-69701444D01*
X156106589Y-69577986D01*
X156105841Y-69571343D01*
X156096958Y-69545959D01*
X156090000Y-69505005D01*
X156090000Y-68550000D01*
X156590000Y-68550000D01*
X156590000Y-69700000D01*
X156937824Y-69700000D01*
X156997375Y-69693597D01*
X157132089Y-69643352D01*
X157247188Y-69557188D01*
X157333352Y-69442089D01*
X157383597Y-69307375D01*
X157390000Y-69247824D01*
X157390000Y-68550000D01*
X156590000Y-68550000D01*
X156090000Y-68550000D01*
X155290000Y-68550000D01*
X155290000Y-68845500D01*
X155273387Y-68907500D01*
X155228000Y-68952887D01*
X155166000Y-68969500D01*
X154974500Y-68969500D01*
X154912500Y-68952887D01*
X154867113Y-68907500D01*
X154850500Y-68845500D01*
X154850500Y-68050000D01*
X155290000Y-68050000D01*
X156090000Y-68050000D01*
X156090000Y-66900000D01*
X156590000Y-66900000D01*
X156590000Y-68050000D01*
X157390000Y-68050000D01*
X157390000Y-67352176D01*
X157383597Y-67292624D01*
X157333352Y-67157910D01*
X157247188Y-67042811D01*
X157132089Y-66956647D01*
X156997375Y-66906402D01*
X156937824Y-66900000D01*
X156590000Y-66900000D01*
X156090000Y-66900000D01*
X155742176Y-66900000D01*
X155682624Y-66906402D01*
X155547910Y-66956647D01*
X155432811Y-67042811D01*
X155346647Y-67157910D01*
X155296402Y-67292624D01*
X155290000Y-67352176D01*
X155290000Y-68050000D01*
X154850500Y-68050000D01*
X154850500Y-67631444D01*
X154835841Y-67501343D01*
X154778122Y-67336393D01*
X154685147Y-67188423D01*
X154561576Y-67064852D01*
X154413606Y-66971877D01*
X154248656Y-66914158D01*
X154118556Y-66899500D01*
X154118552Y-66899500D01*
X153481448Y-66899500D01*
X153481444Y-66899500D01*
X153351343Y-66914158D01*
X153186393Y-66971877D01*
X153038423Y-67064852D01*
X152914852Y-67188423D01*
X152821877Y-67336393D01*
X152764158Y-67501343D01*
X152749500Y-67631444D01*
X152749500Y-68114548D01*
X152740059Y-68162005D01*
X152713177Y-68202232D01*
X152702756Y-68212653D01*
X152699410Y-68215999D01*
X152684624Y-68228626D01*
X152668413Y-68240404D01*
X152640572Y-68274058D01*
X152632711Y-68282697D01*
X151716208Y-69199199D01*
X151700110Y-69212096D01*
X151652096Y-69263225D01*
X151649391Y-69266017D01*
X151629874Y-69285534D01*
X151627415Y-69288705D01*
X151619842Y-69297572D01*
X151589935Y-69329420D01*
X151580285Y-69346974D01*
X151569609Y-69363228D01*
X151557326Y-69379063D01*
X151539975Y-69419158D01*
X151534838Y-69429644D01*
X151513802Y-69467907D01*
X151508821Y-69487309D01*
X151502520Y-69505711D01*
X151494561Y-69524102D01*
X151487728Y-69567242D01*
X151485360Y-69578674D01*
X151474500Y-69620978D01*
X151474500Y-69641016D01*
X151472973Y-69660415D01*
X151469840Y-69680194D01*
X151473950Y-69723675D01*
X151474500Y-69735344D01*
X151474500Y-72485812D01*
X151460489Y-72543069D01*
X151421623Y-72587387D01*
X151260859Y-72699953D01*
X151099953Y-72860859D01*
X150969432Y-73047264D01*
X150873261Y-73253502D01*
X150814364Y-73473310D01*
X150794531Y-73700000D01*
X137200500Y-73700000D01*
X137200500Y-71800000D01*
X140232676Y-71800000D01*
X140251929Y-72020065D01*
X140251930Y-72020068D01*
X140309106Y-72233450D01*
X140402466Y-72433662D01*
X140529174Y-72614620D01*
X140685380Y-72770826D01*
X140866338Y-72897534D01*
X141066550Y-72990894D01*
X141279932Y-73048070D01*
X141500000Y-73067323D01*
X141720068Y-73048070D01*
X141933450Y-72990894D01*
X142133662Y-72897534D01*
X142314620Y-72770826D01*
X142470826Y-72614620D01*
X142597534Y-72433662D01*
X142690894Y-72233450D01*
X142748070Y-72020068D01*
X142767323Y-71800000D01*
X142748070Y-71579932D01*
X142690894Y-71366550D01*
X142597534Y-71166339D01*
X142470826Y-70985380D01*
X142314620Y-70829174D01*
X142133662Y-70702466D01*
X141933451Y-70609106D01*
X141720065Y-70551929D01*
X141500000Y-70532676D01*
X141279934Y-70551929D01*
X141066548Y-70609106D01*
X140866338Y-70702466D01*
X140685379Y-70829174D01*
X140529174Y-70985379D01*
X140402466Y-71166338D01*
X140309106Y-71366548D01*
X140251929Y-71579934D01*
X140232676Y-71800000D01*
X137200500Y-71800000D01*
X137200500Y-66767764D01*
X139345787Y-66767764D01*
X139375413Y-67037016D01*
X139382691Y-67064853D01*
X139443928Y-67299088D01*
X139466488Y-67352176D01*
X139549871Y-67548392D01*
X139690982Y-67779611D01*
X139780253Y-67886881D01*
X139864255Y-67987820D01*
X140065998Y-68168582D01*
X140291910Y-68318044D01*
X140355430Y-68347821D01*
X140537177Y-68433021D01*
X140741632Y-68494532D01*
X140796569Y-68511060D01*
X141064561Y-68550500D01*
X141267631Y-68550500D01*
X141267634Y-68550500D01*
X141470156Y-68535677D01*
X141470156Y-68535676D01*
X141734553Y-68476780D01*
X141987558Y-68380014D01*
X142223777Y-68247441D01*
X142414722Y-68099999D01*
X146594356Y-68099999D01*
X146614891Y-68347816D01*
X146614891Y-68347819D01*
X146614892Y-68347821D01*
X146675937Y-68588881D01*
X146706110Y-68657668D01*
X146775825Y-68816604D01*
X146775827Y-68816607D01*
X146911836Y-69024785D01*
X147080256Y-69207738D01*
X147145377Y-69258424D01*
X147276485Y-69360470D01*
X147276487Y-69360471D01*
X147276491Y-69360474D01*
X147495190Y-69478828D01*
X147730386Y-69559571D01*
X147975665Y-69600500D01*
X148224335Y-69600500D01*
X148469614Y-69559571D01*
X148704810Y-69478828D01*
X148923509Y-69360474D01*
X149119744Y-69207738D01*
X149288164Y-69024785D01*
X149424173Y-68816607D01*
X149524063Y-68588881D01*
X149585108Y-68347821D01*
X149605643Y-68100000D01*
X149585108Y-67852179D01*
X149524063Y-67611119D01*
X149424173Y-67383393D01*
X149288164Y-67175215D01*
X149119744Y-66992262D01*
X149073986Y-66956647D01*
X148923514Y-66839529D01*
X148923510Y-66839526D01*
X148923509Y-66839526D01*
X148790904Y-66767764D01*
X172245787Y-66767764D01*
X172275413Y-67037016D01*
X172282691Y-67064853D01*
X172343928Y-67299088D01*
X172366488Y-67352176D01*
X172449871Y-67548392D01*
X172590982Y-67779611D01*
X172680253Y-67886881D01*
X172764255Y-67987820D01*
X172965998Y-68168582D01*
X173191910Y-68318044D01*
X173255430Y-68347821D01*
X173437177Y-68433021D01*
X173641632Y-68494532D01*
X173696569Y-68511060D01*
X173964561Y-68550500D01*
X174167631Y-68550500D01*
X174167634Y-68550500D01*
X174370156Y-68535677D01*
X174370156Y-68535676D01*
X174634553Y-68476780D01*
X174887558Y-68380014D01*
X175123777Y-68247441D01*
X175338177Y-68081888D01*
X175526186Y-67886881D01*
X175683799Y-67666579D01*
X175807656Y-67425675D01*
X175895118Y-67169305D01*
X175944319Y-66902933D01*
X175954212Y-66632235D01*
X175924586Y-66362982D01*
X175856072Y-66100912D01*
X175750130Y-65851610D01*
X175620461Y-65639140D01*
X175609017Y-65620388D01*
X175435746Y-65412181D01*
X175349258Y-65334688D01*
X175234002Y-65231418D01*
X175008090Y-65081956D01*
X175008086Y-65081954D01*
X174762822Y-64966978D01*
X174503437Y-64888941D01*
X174503431Y-64888940D01*
X174235439Y-64849500D01*
X174032369Y-64849500D01*
X174032366Y-64849500D01*
X173829843Y-64864322D01*
X173565449Y-64923219D01*
X173312441Y-65019986D01*
X173076223Y-65152559D01*
X172861825Y-65318109D01*
X172673813Y-65513120D01*
X172516201Y-65733420D01*
X172392342Y-65974329D01*
X172304881Y-66230695D01*
X172255680Y-66497066D01*
X172245787Y-66767764D01*
X148790904Y-66767764D01*
X148704810Y-66721172D01*
X148704806Y-66721170D01*
X148704805Y-66721170D01*
X148469615Y-66640429D01*
X148224335Y-66599500D01*
X147975665Y-66599500D01*
X147730384Y-66640429D01*
X147495194Y-66721170D01*
X147276485Y-66839529D01*
X147080259Y-66992259D01*
X147080256Y-66992261D01*
X147080256Y-66992262D01*
X146917277Y-67169305D01*
X146911837Y-67175214D01*
X146775825Y-67383395D01*
X146675938Y-67611117D01*
X146614891Y-67852183D01*
X146594356Y-68099999D01*
X142414722Y-68099999D01*
X142438177Y-68081888D01*
X142626186Y-67886881D01*
X142783799Y-67666579D01*
X142907656Y-67425675D01*
X142995118Y-67169305D01*
X143044319Y-66902933D01*
X143054212Y-66632235D01*
X143024586Y-66362982D01*
X142956072Y-66100912D01*
X142850130Y-65851610D01*
X142720461Y-65639140D01*
X142709017Y-65620388D01*
X142535746Y-65412181D01*
X142449258Y-65334688D01*
X142334002Y-65231418D01*
X142108090Y-65081956D01*
X142108086Y-65081954D01*
X141862822Y-64966978D01*
X141603437Y-64888941D01*
X141603431Y-64888940D01*
X141335439Y-64849500D01*
X141132369Y-64849500D01*
X141132366Y-64849500D01*
X140929843Y-64864322D01*
X140665449Y-64923219D01*
X140412441Y-65019986D01*
X140176223Y-65152559D01*
X139961825Y-65318109D01*
X139773813Y-65513120D01*
X139616201Y-65733420D01*
X139492342Y-65974329D01*
X139404881Y-66230695D01*
X139355680Y-66497066D01*
X139345787Y-66767764D01*
X137200500Y-66767764D01*
X137200500Y-64700000D01*
X144974357Y-64700000D01*
X144994885Y-64921537D01*
X145055769Y-65135526D01*
X145154941Y-65334688D01*
X145289019Y-65512237D01*
X145453437Y-65662124D01*
X145642595Y-65779245D01*
X145642597Y-65779245D01*
X145642599Y-65779247D01*
X145850060Y-65859618D01*
X146068757Y-65900500D01*
X146291241Y-65900500D01*
X146291243Y-65900500D01*
X146509940Y-65859618D01*
X146717401Y-65779247D01*
X146906562Y-65662124D01*
X147070981Y-65512236D01*
X147205058Y-65334689D01*
X147304229Y-65135528D01*
X147365115Y-64921536D01*
X147385643Y-64700000D01*
X152594357Y-64700000D01*
X152614885Y-64921537D01*
X152675769Y-65135526D01*
X152774941Y-65334688D01*
X152909019Y-65512237D01*
X153073437Y-65662124D01*
X153262595Y-65779245D01*
X153262597Y-65779245D01*
X153262599Y-65779247D01*
X153470060Y-65859618D01*
X153688757Y-65900500D01*
X153911241Y-65900500D01*
X153911243Y-65900500D01*
X154129940Y-65859618D01*
X154337401Y-65779247D01*
X154526562Y-65662124D01*
X154690981Y-65512236D01*
X154825058Y-65334689D01*
X154888999Y-65206277D01*
X154934722Y-65156122D01*
X155000000Y-65137549D01*
X155065278Y-65156122D01*
X155111000Y-65206277D01*
X155174941Y-65334688D01*
X155309019Y-65512237D01*
X155473437Y-65662124D01*
X155662595Y-65779245D01*
X155662597Y-65779245D01*
X155662599Y-65779247D01*
X155870060Y-65859618D01*
X156088757Y-65900500D01*
X156311241Y-65900500D01*
X156311243Y-65900500D01*
X156529940Y-65859618D01*
X156737401Y-65779247D01*
X156926562Y-65662124D01*
X157090981Y-65512236D01*
X157225058Y-65334689D01*
X157324229Y-65135528D01*
X157385115Y-64921536D01*
X157405643Y-64700000D01*
X162614357Y-64700000D01*
X162634885Y-64921537D01*
X162695769Y-65135526D01*
X162794941Y-65334688D01*
X162929019Y-65512237D01*
X163093437Y-65662124D01*
X163282595Y-65779245D01*
X163282597Y-65779245D01*
X163282599Y-65779247D01*
X163490060Y-65859618D01*
X163708757Y-65900500D01*
X163931241Y-65900500D01*
X163931243Y-65900500D01*
X164149940Y-65859618D01*
X164357401Y-65779247D01*
X164546562Y-65662124D01*
X164710981Y-65512236D01*
X164845058Y-65334689D01*
X164944229Y-65135528D01*
X165005115Y-64921536D01*
X165016377Y-64800000D01*
X167294531Y-64800000D01*
X167314364Y-65026689D01*
X167373261Y-65246497D01*
X167469432Y-65452735D01*
X167599953Y-65639140D01*
X167760859Y-65800046D01*
X167947264Y-65930567D01*
X167947265Y-65930567D01*
X167947266Y-65930568D01*
X168153504Y-66026739D01*
X168373308Y-66085635D01*
X168600000Y-66105468D01*
X168826692Y-66085635D01*
X169046496Y-66026739D01*
X169252734Y-65930568D01*
X169439139Y-65800047D01*
X169600047Y-65639139D01*
X169730568Y-65452734D01*
X169826739Y-65246496D01*
X169885635Y-65026692D01*
X169905468Y-64800000D01*
X169885635Y-64573308D01*
X169826739Y-64353504D01*
X169730568Y-64147266D01*
X169600047Y-63960861D01*
X169600046Y-63960859D01*
X169439140Y-63799953D01*
X169252735Y-63669432D01*
X169046497Y-63573261D01*
X168826689Y-63514364D01*
X168600000Y-63494531D01*
X168373310Y-63514364D01*
X168153502Y-63573261D01*
X167947264Y-63669432D01*
X167760859Y-63799953D01*
X167599953Y-63960859D01*
X167469432Y-64147264D01*
X167373261Y-64353502D01*
X167314364Y-64573310D01*
X167294531Y-64800000D01*
X165016377Y-64800000D01*
X165025643Y-64700000D01*
X165005115Y-64478464D01*
X164969560Y-64353502D01*
X164944230Y-64264473D01*
X164845058Y-64065311D01*
X164710980Y-63887762D01*
X164546562Y-63737875D01*
X164357404Y-63620754D01*
X164234810Y-63573261D01*
X164149940Y-63540382D01*
X163931243Y-63499500D01*
X163708757Y-63499500D01*
X163490060Y-63540381D01*
X163490060Y-63540382D01*
X163282595Y-63620754D01*
X163093437Y-63737875D01*
X162929019Y-63887762D01*
X162794941Y-64065311D01*
X162695769Y-64264473D01*
X162634885Y-64478462D01*
X162614357Y-64700000D01*
X157405643Y-64700000D01*
X157385115Y-64478464D01*
X157349560Y-64353502D01*
X157324230Y-64264473D01*
X157225058Y-64065311D01*
X157090980Y-63887762D01*
X156926562Y-63737875D01*
X156737404Y-63620754D01*
X156614810Y-63573261D01*
X156529940Y-63540382D01*
X156311243Y-63499500D01*
X156088757Y-63499500D01*
X155870060Y-63540381D01*
X155870060Y-63540382D01*
X155662595Y-63620754D01*
X155473437Y-63737875D01*
X155309019Y-63887762D01*
X155174941Y-64065311D01*
X155111000Y-64193722D01*
X155065277Y-64243877D01*
X155000000Y-64262450D01*
X154934723Y-64243877D01*
X154889000Y-64193722D01*
X154825058Y-64065311D01*
X154690980Y-63887762D01*
X154526562Y-63737875D01*
X154337404Y-63620754D01*
X154214810Y-63573261D01*
X154129940Y-63540382D01*
X153911243Y-63499500D01*
X153688757Y-63499500D01*
X153470060Y-63540381D01*
X153470060Y-63540382D01*
X153262595Y-63620754D01*
X153073437Y-63737875D01*
X152909019Y-63887762D01*
X152774941Y-64065311D01*
X152675769Y-64264473D01*
X152614885Y-64478462D01*
X152594357Y-64700000D01*
X147385643Y-64700000D01*
X147365115Y-64478464D01*
X147329560Y-64353502D01*
X147304230Y-64264473D01*
X147205058Y-64065311D01*
X147070980Y-63887762D01*
X146906562Y-63737875D01*
X146717404Y-63620754D01*
X146594810Y-63573261D01*
X146509940Y-63540382D01*
X146291243Y-63499500D01*
X146068757Y-63499500D01*
X145850060Y-63540381D01*
X145850060Y-63540382D01*
X145642595Y-63620754D01*
X145453437Y-63737875D01*
X145289019Y-63887762D01*
X145154941Y-64065311D01*
X145055769Y-64264473D01*
X144994885Y-64478462D01*
X144974357Y-64700000D01*
X137200500Y-64700000D01*
X137200500Y-62724500D01*
X137217113Y-62662500D01*
X137262500Y-62617113D01*
X137324500Y-62600500D01*
X177975500Y-62600500D01*
X178037500Y-62617113D01*
G37*
%TD.AperFunction*%
%TD*%
M02*
