%TF.GenerationSoftware,KiCad,Pcbnew,8.0.1*%
%TF.CreationDate,2024-04-18T15:02:16+02:00*%
%TF.ProjectId,GewitterMonitor,47657769-7474-4657-924d-6f6e69746f72,rev?*%
%TF.SameCoordinates,Original*%
%TF.FileFunction,Legend,Bot*%
%TF.FilePolarity,Positive*%
%FSLAX46Y46*%
G04 Gerber Fmt 4.6, Leading zero omitted, Abs format (unit mm)*
G04 Created by KiCad (PCBNEW 8.0.1) date 2024-04-18 15:02:16*
%MOMM*%
%LPD*%
G01*
G04 APERTURE LIST*
%ADD10C,0.150000*%
%ADD11C,0.100000*%
%ADD12C,0.120000*%
G04 APERTURE END LIST*
D10*
X74483332Y-53407200D02*
X74340475Y-53454819D01*
X74340475Y-53454819D02*
X74102380Y-53454819D01*
X74102380Y-53454819D02*
X74007142Y-53407200D01*
X74007142Y-53407200D02*
X73959523Y-53359580D01*
X73959523Y-53359580D02*
X73911904Y-53264342D01*
X73911904Y-53264342D02*
X73911904Y-53169104D01*
X73911904Y-53169104D02*
X73959523Y-53073866D01*
X73959523Y-53073866D02*
X74007142Y-53026247D01*
X74007142Y-53026247D02*
X74102380Y-52978628D01*
X74102380Y-52978628D02*
X74292856Y-52931009D01*
X74292856Y-52931009D02*
X74388094Y-52883390D01*
X74388094Y-52883390D02*
X74435713Y-52835771D01*
X74435713Y-52835771D02*
X74483332Y-52740533D01*
X74483332Y-52740533D02*
X74483332Y-52645295D01*
X74483332Y-52645295D02*
X74435713Y-52550057D01*
X74435713Y-52550057D02*
X74388094Y-52502438D01*
X74388094Y-52502438D02*
X74292856Y-52454819D01*
X74292856Y-52454819D02*
X74054761Y-52454819D01*
X74054761Y-52454819D02*
X73911904Y-52502438D01*
X73578570Y-52454819D02*
X73340475Y-53454819D01*
X73340475Y-53454819D02*
X73149999Y-52740533D01*
X73149999Y-52740533D02*
X72959523Y-53454819D01*
X72959523Y-53454819D02*
X72721428Y-52454819D01*
X72388094Y-52550057D02*
X72340475Y-52502438D01*
X72340475Y-52502438D02*
X72245237Y-52454819D01*
X72245237Y-52454819D02*
X72007142Y-52454819D01*
X72007142Y-52454819D02*
X71911904Y-52502438D01*
X71911904Y-52502438D02*
X71864285Y-52550057D01*
X71864285Y-52550057D02*
X71816666Y-52645295D01*
X71816666Y-52645295D02*
X71816666Y-52740533D01*
X71816666Y-52740533D02*
X71864285Y-52883390D01*
X71864285Y-52883390D02*
X72435713Y-53454819D01*
X72435713Y-53454819D02*
X71816666Y-53454819D01*
X63483332Y-62407200D02*
X63340475Y-62454819D01*
X63340475Y-62454819D02*
X63102380Y-62454819D01*
X63102380Y-62454819D02*
X63007142Y-62407200D01*
X63007142Y-62407200D02*
X62959523Y-62359580D01*
X62959523Y-62359580D02*
X62911904Y-62264342D01*
X62911904Y-62264342D02*
X62911904Y-62169104D01*
X62911904Y-62169104D02*
X62959523Y-62073866D01*
X62959523Y-62073866D02*
X63007142Y-62026247D01*
X63007142Y-62026247D02*
X63102380Y-61978628D01*
X63102380Y-61978628D02*
X63292856Y-61931009D01*
X63292856Y-61931009D02*
X63388094Y-61883390D01*
X63388094Y-61883390D02*
X63435713Y-61835771D01*
X63435713Y-61835771D02*
X63483332Y-61740533D01*
X63483332Y-61740533D02*
X63483332Y-61645295D01*
X63483332Y-61645295D02*
X63435713Y-61550057D01*
X63435713Y-61550057D02*
X63388094Y-61502438D01*
X63388094Y-61502438D02*
X63292856Y-61454819D01*
X63292856Y-61454819D02*
X63054761Y-61454819D01*
X63054761Y-61454819D02*
X62911904Y-61502438D01*
X62578570Y-61454819D02*
X62340475Y-62454819D01*
X62340475Y-62454819D02*
X62149999Y-61740533D01*
X62149999Y-61740533D02*
X61959523Y-62454819D01*
X61959523Y-62454819D02*
X61721428Y-61454819D01*
X60816666Y-62454819D02*
X61388094Y-62454819D01*
X61102380Y-62454819D02*
X61102380Y-61454819D01*
X61102380Y-61454819D02*
X61197618Y-61597676D01*
X61197618Y-61597676D02*
X61292856Y-61692914D01*
X61292856Y-61692914D02*
X61388094Y-61740533D01*
D11*
X174652704Y-29435019D02*
X174652704Y-30244542D01*
X174652704Y-30244542D02*
X174605085Y-30339780D01*
X174605085Y-30339780D02*
X174557466Y-30387400D01*
X174557466Y-30387400D02*
X174462228Y-30435019D01*
X174462228Y-30435019D02*
X174271752Y-30435019D01*
X174271752Y-30435019D02*
X174176514Y-30387400D01*
X174176514Y-30387400D02*
X174128895Y-30339780D01*
X174128895Y-30339780D02*
X174081276Y-30244542D01*
X174081276Y-30244542D02*
X174081276Y-29435019D01*
X173081276Y-30435019D02*
X173652704Y-30435019D01*
X173366990Y-30435019D02*
X173366990Y-29435019D01*
X173366990Y-29435019D02*
X173462228Y-29577876D01*
X173462228Y-29577876D02*
X173557466Y-29673114D01*
X173557466Y-29673114D02*
X173652704Y-29720733D01*
D10*
X67971428Y-41854819D02*
X68304761Y-41378628D01*
X68542856Y-41854819D02*
X68542856Y-40854819D01*
X68542856Y-40854819D02*
X68161904Y-40854819D01*
X68161904Y-40854819D02*
X68066666Y-40902438D01*
X68066666Y-40902438D02*
X68019047Y-40950057D01*
X68019047Y-40950057D02*
X67971428Y-41045295D01*
X67971428Y-41045295D02*
X67971428Y-41188152D01*
X67971428Y-41188152D02*
X68019047Y-41283390D01*
X68019047Y-41283390D02*
X68066666Y-41331009D01*
X68066666Y-41331009D02*
X68161904Y-41378628D01*
X68161904Y-41378628D02*
X68542856Y-41378628D01*
X67161904Y-41807200D02*
X67257142Y-41854819D01*
X67257142Y-41854819D02*
X67447618Y-41854819D01*
X67447618Y-41854819D02*
X67542856Y-41807200D01*
X67542856Y-41807200D02*
X67590475Y-41711961D01*
X67590475Y-41711961D02*
X67590475Y-41331009D01*
X67590475Y-41331009D02*
X67542856Y-41235771D01*
X67542856Y-41235771D02*
X67447618Y-41188152D01*
X67447618Y-41188152D02*
X67257142Y-41188152D01*
X67257142Y-41188152D02*
X67161904Y-41235771D01*
X67161904Y-41235771D02*
X67114285Y-41331009D01*
X67114285Y-41331009D02*
X67114285Y-41426247D01*
X67114285Y-41426247D02*
X67590475Y-41521485D01*
X66257142Y-41854819D02*
X66257142Y-40854819D01*
X66257142Y-41807200D02*
X66352380Y-41854819D01*
X66352380Y-41854819D02*
X66542856Y-41854819D01*
X66542856Y-41854819D02*
X66638094Y-41807200D01*
X66638094Y-41807200D02*
X66685713Y-41759580D01*
X66685713Y-41759580D02*
X66733332Y-41664342D01*
X66733332Y-41664342D02*
X66733332Y-41378628D01*
X66733332Y-41378628D02*
X66685713Y-41283390D01*
X66685713Y-41283390D02*
X66638094Y-41235771D01*
X66638094Y-41235771D02*
X66542856Y-41188152D01*
X66542856Y-41188152D02*
X66352380Y-41188152D01*
X66352380Y-41188152D02*
X66257142Y-41235771D01*
X75228571Y-41378628D02*
X75228571Y-41854819D01*
X75561904Y-40854819D02*
X75228571Y-41378628D01*
X75228571Y-41378628D02*
X74895238Y-40854819D01*
X74180952Y-41807200D02*
X74276190Y-41854819D01*
X74276190Y-41854819D02*
X74466666Y-41854819D01*
X74466666Y-41854819D02*
X74561904Y-41807200D01*
X74561904Y-41807200D02*
X74609523Y-41711961D01*
X74609523Y-41711961D02*
X74609523Y-41331009D01*
X74609523Y-41331009D02*
X74561904Y-41235771D01*
X74561904Y-41235771D02*
X74466666Y-41188152D01*
X74466666Y-41188152D02*
X74276190Y-41188152D01*
X74276190Y-41188152D02*
X74180952Y-41235771D01*
X74180952Y-41235771D02*
X74133333Y-41331009D01*
X74133333Y-41331009D02*
X74133333Y-41426247D01*
X74133333Y-41426247D02*
X74609523Y-41521485D01*
X73561904Y-41854819D02*
X73657142Y-41807200D01*
X73657142Y-41807200D02*
X73704761Y-41711961D01*
X73704761Y-41711961D02*
X73704761Y-40854819D01*
X73038094Y-41854819D02*
X73133332Y-41807200D01*
X73133332Y-41807200D02*
X73180951Y-41711961D01*
X73180951Y-41711961D02*
X73180951Y-40854819D01*
X72514284Y-41854819D02*
X72609522Y-41807200D01*
X72609522Y-41807200D02*
X72657141Y-41759580D01*
X72657141Y-41759580D02*
X72704760Y-41664342D01*
X72704760Y-41664342D02*
X72704760Y-41378628D01*
X72704760Y-41378628D02*
X72657141Y-41283390D01*
X72657141Y-41283390D02*
X72609522Y-41235771D01*
X72609522Y-41235771D02*
X72514284Y-41188152D01*
X72514284Y-41188152D02*
X72371427Y-41188152D01*
X72371427Y-41188152D02*
X72276189Y-41235771D01*
X72276189Y-41235771D02*
X72228570Y-41283390D01*
X72228570Y-41283390D02*
X72180951Y-41378628D01*
X72180951Y-41378628D02*
X72180951Y-41664342D01*
X72180951Y-41664342D02*
X72228570Y-41759580D01*
X72228570Y-41759580D02*
X72276189Y-41807200D01*
X72276189Y-41807200D02*
X72371427Y-41854819D01*
X72371427Y-41854819D02*
X72514284Y-41854819D01*
X71847617Y-41188152D02*
X71657141Y-41854819D01*
X71657141Y-41854819D02*
X71466665Y-41378628D01*
X71466665Y-41378628D02*
X71276189Y-41854819D01*
X71276189Y-41854819D02*
X71085713Y-41188152D01*
X70509524Y-32231009D02*
X70842857Y-32231009D01*
X70842857Y-32754819D02*
X70842857Y-31754819D01*
X70842857Y-31754819D02*
X70366667Y-31754819D01*
X69842857Y-32754819D02*
X69938095Y-32707200D01*
X69938095Y-32707200D02*
X69985714Y-32611961D01*
X69985714Y-32611961D02*
X69985714Y-31754819D01*
X69033333Y-32754819D02*
X69033333Y-32231009D01*
X69033333Y-32231009D02*
X69080952Y-32135771D01*
X69080952Y-32135771D02*
X69176190Y-32088152D01*
X69176190Y-32088152D02*
X69366666Y-32088152D01*
X69366666Y-32088152D02*
X69461904Y-32135771D01*
X69033333Y-32707200D02*
X69128571Y-32754819D01*
X69128571Y-32754819D02*
X69366666Y-32754819D01*
X69366666Y-32754819D02*
X69461904Y-32707200D01*
X69461904Y-32707200D02*
X69509523Y-32611961D01*
X69509523Y-32611961D02*
X69509523Y-32516723D01*
X69509523Y-32516723D02*
X69461904Y-32421485D01*
X69461904Y-32421485D02*
X69366666Y-32373866D01*
X69366666Y-32373866D02*
X69128571Y-32373866D01*
X69128571Y-32373866D02*
X69033333Y-32326247D01*
X68604761Y-32707200D02*
X68509523Y-32754819D01*
X68509523Y-32754819D02*
X68319047Y-32754819D01*
X68319047Y-32754819D02*
X68223809Y-32707200D01*
X68223809Y-32707200D02*
X68176190Y-32611961D01*
X68176190Y-32611961D02*
X68176190Y-32564342D01*
X68176190Y-32564342D02*
X68223809Y-32469104D01*
X68223809Y-32469104D02*
X68319047Y-32421485D01*
X68319047Y-32421485D02*
X68461904Y-32421485D01*
X68461904Y-32421485D02*
X68557142Y-32373866D01*
X68557142Y-32373866D02*
X68604761Y-32278628D01*
X68604761Y-32278628D02*
X68604761Y-32231009D01*
X68604761Y-32231009D02*
X68557142Y-32135771D01*
X68557142Y-32135771D02*
X68461904Y-32088152D01*
X68461904Y-32088152D02*
X68319047Y-32088152D01*
X68319047Y-32088152D02*
X68223809Y-32135771D01*
X67747618Y-32754819D02*
X67747618Y-31754819D01*
X67319047Y-32754819D02*
X67319047Y-32231009D01*
X67319047Y-32231009D02*
X67366666Y-32135771D01*
X67366666Y-32135771D02*
X67461904Y-32088152D01*
X67461904Y-32088152D02*
X67604761Y-32088152D01*
X67604761Y-32088152D02*
X67699999Y-32135771D01*
X67699999Y-32135771D02*
X67747618Y-32183390D01*
X65747618Y-32231009D02*
X65604761Y-32278628D01*
X65604761Y-32278628D02*
X65557142Y-32326247D01*
X65557142Y-32326247D02*
X65509523Y-32421485D01*
X65509523Y-32421485D02*
X65509523Y-32564342D01*
X65509523Y-32564342D02*
X65557142Y-32659580D01*
X65557142Y-32659580D02*
X65604761Y-32707200D01*
X65604761Y-32707200D02*
X65699999Y-32754819D01*
X65699999Y-32754819D02*
X66080951Y-32754819D01*
X66080951Y-32754819D02*
X66080951Y-31754819D01*
X66080951Y-31754819D02*
X65747618Y-31754819D01*
X65747618Y-31754819D02*
X65652380Y-31802438D01*
X65652380Y-31802438D02*
X65604761Y-31850057D01*
X65604761Y-31850057D02*
X65557142Y-31945295D01*
X65557142Y-31945295D02*
X65557142Y-32040533D01*
X65557142Y-32040533D02*
X65604761Y-32135771D01*
X65604761Y-32135771D02*
X65652380Y-32183390D01*
X65652380Y-32183390D02*
X65747618Y-32231009D01*
X65747618Y-32231009D02*
X66080951Y-32231009D01*
X80557143Y-40902438D02*
X80652381Y-40854819D01*
X80652381Y-40854819D02*
X80795238Y-40854819D01*
X80795238Y-40854819D02*
X80938095Y-40902438D01*
X80938095Y-40902438D02*
X81033333Y-40997676D01*
X81033333Y-40997676D02*
X81080952Y-41092914D01*
X81080952Y-41092914D02*
X81128571Y-41283390D01*
X81128571Y-41283390D02*
X81128571Y-41426247D01*
X81128571Y-41426247D02*
X81080952Y-41616723D01*
X81080952Y-41616723D02*
X81033333Y-41711961D01*
X81033333Y-41711961D02*
X80938095Y-41807200D01*
X80938095Y-41807200D02*
X80795238Y-41854819D01*
X80795238Y-41854819D02*
X80700000Y-41854819D01*
X80700000Y-41854819D02*
X80557143Y-41807200D01*
X80557143Y-41807200D02*
X80509524Y-41759580D01*
X80509524Y-41759580D02*
X80509524Y-41426247D01*
X80509524Y-41426247D02*
X80700000Y-41426247D01*
X80080952Y-41854819D02*
X80080952Y-41188152D01*
X80080952Y-41378628D02*
X80033333Y-41283390D01*
X80033333Y-41283390D02*
X79985714Y-41235771D01*
X79985714Y-41235771D02*
X79890476Y-41188152D01*
X79890476Y-41188152D02*
X79795238Y-41188152D01*
X79080952Y-41807200D02*
X79176190Y-41854819D01*
X79176190Y-41854819D02*
X79366666Y-41854819D01*
X79366666Y-41854819D02*
X79461904Y-41807200D01*
X79461904Y-41807200D02*
X79509523Y-41711961D01*
X79509523Y-41711961D02*
X79509523Y-41331009D01*
X79509523Y-41331009D02*
X79461904Y-41235771D01*
X79461904Y-41235771D02*
X79366666Y-41188152D01*
X79366666Y-41188152D02*
X79176190Y-41188152D01*
X79176190Y-41188152D02*
X79080952Y-41235771D01*
X79080952Y-41235771D02*
X79033333Y-41331009D01*
X79033333Y-41331009D02*
X79033333Y-41426247D01*
X79033333Y-41426247D02*
X79509523Y-41521485D01*
X78223809Y-41807200D02*
X78319047Y-41854819D01*
X78319047Y-41854819D02*
X78509523Y-41854819D01*
X78509523Y-41854819D02*
X78604761Y-41807200D01*
X78604761Y-41807200D02*
X78652380Y-41711961D01*
X78652380Y-41711961D02*
X78652380Y-41331009D01*
X78652380Y-41331009D02*
X78604761Y-41235771D01*
X78604761Y-41235771D02*
X78509523Y-41188152D01*
X78509523Y-41188152D02*
X78319047Y-41188152D01*
X78319047Y-41188152D02*
X78223809Y-41235771D01*
X78223809Y-41235771D02*
X78176190Y-41331009D01*
X78176190Y-41331009D02*
X78176190Y-41426247D01*
X78176190Y-41426247D02*
X78652380Y-41521485D01*
X77747618Y-41188152D02*
X77747618Y-41854819D01*
X77747618Y-41283390D02*
X77699999Y-41235771D01*
X77699999Y-41235771D02*
X77604761Y-41188152D01*
X77604761Y-41188152D02*
X77461904Y-41188152D01*
X77461904Y-41188152D02*
X77366666Y-41235771D01*
X77366666Y-41235771D02*
X77319047Y-41331009D01*
X77319047Y-41331009D02*
X77319047Y-41854819D01*
X85483332Y-62407200D02*
X85340475Y-62454819D01*
X85340475Y-62454819D02*
X85102380Y-62454819D01*
X85102380Y-62454819D02*
X85007142Y-62407200D01*
X85007142Y-62407200D02*
X84959523Y-62359580D01*
X84959523Y-62359580D02*
X84911904Y-62264342D01*
X84911904Y-62264342D02*
X84911904Y-62169104D01*
X84911904Y-62169104D02*
X84959523Y-62073866D01*
X84959523Y-62073866D02*
X85007142Y-62026247D01*
X85007142Y-62026247D02*
X85102380Y-61978628D01*
X85102380Y-61978628D02*
X85292856Y-61931009D01*
X85292856Y-61931009D02*
X85388094Y-61883390D01*
X85388094Y-61883390D02*
X85435713Y-61835771D01*
X85435713Y-61835771D02*
X85483332Y-61740533D01*
X85483332Y-61740533D02*
X85483332Y-61645295D01*
X85483332Y-61645295D02*
X85435713Y-61550057D01*
X85435713Y-61550057D02*
X85388094Y-61502438D01*
X85388094Y-61502438D02*
X85292856Y-61454819D01*
X85292856Y-61454819D02*
X85054761Y-61454819D01*
X85054761Y-61454819D02*
X84911904Y-61502438D01*
X84578570Y-61454819D02*
X84340475Y-62454819D01*
X84340475Y-62454819D02*
X84149999Y-61740533D01*
X84149999Y-61740533D02*
X83959523Y-62454819D01*
X83959523Y-62454819D02*
X83721428Y-61454819D01*
X83435713Y-61454819D02*
X82816666Y-61454819D01*
X82816666Y-61454819D02*
X83149999Y-61835771D01*
X83149999Y-61835771D02*
X83007142Y-61835771D01*
X83007142Y-61835771D02*
X82911904Y-61883390D01*
X82911904Y-61883390D02*
X82864285Y-61931009D01*
X82864285Y-61931009D02*
X82816666Y-62026247D01*
X82816666Y-62026247D02*
X82816666Y-62264342D01*
X82816666Y-62264342D02*
X82864285Y-62359580D01*
X82864285Y-62359580D02*
X82911904Y-62407200D01*
X82911904Y-62407200D02*
X83007142Y-62454819D01*
X83007142Y-62454819D02*
X83292856Y-62454819D01*
X83292856Y-62454819D02*
X83388094Y-62407200D01*
X83388094Y-62407200D02*
X83435713Y-62359580D01*
X74483332Y-62407200D02*
X74340475Y-62454819D01*
X74340475Y-62454819D02*
X74102380Y-62454819D01*
X74102380Y-62454819D02*
X74007142Y-62407200D01*
X74007142Y-62407200D02*
X73959523Y-62359580D01*
X73959523Y-62359580D02*
X73911904Y-62264342D01*
X73911904Y-62264342D02*
X73911904Y-62169104D01*
X73911904Y-62169104D02*
X73959523Y-62073866D01*
X73959523Y-62073866D02*
X74007142Y-62026247D01*
X74007142Y-62026247D02*
X74102380Y-61978628D01*
X74102380Y-61978628D02*
X74292856Y-61931009D01*
X74292856Y-61931009D02*
X74388094Y-61883390D01*
X74388094Y-61883390D02*
X74435713Y-61835771D01*
X74435713Y-61835771D02*
X74483332Y-61740533D01*
X74483332Y-61740533D02*
X74483332Y-61645295D01*
X74483332Y-61645295D02*
X74435713Y-61550057D01*
X74435713Y-61550057D02*
X74388094Y-61502438D01*
X74388094Y-61502438D02*
X74292856Y-61454819D01*
X74292856Y-61454819D02*
X74054761Y-61454819D01*
X74054761Y-61454819D02*
X73911904Y-61502438D01*
X73578570Y-61454819D02*
X73340475Y-62454819D01*
X73340475Y-62454819D02*
X73149999Y-61740533D01*
X73149999Y-61740533D02*
X72959523Y-62454819D01*
X72959523Y-62454819D02*
X72721428Y-61454819D01*
X71864285Y-61454819D02*
X72340475Y-61454819D01*
X72340475Y-61454819D02*
X72388094Y-61931009D01*
X72388094Y-61931009D02*
X72340475Y-61883390D01*
X72340475Y-61883390D02*
X72245237Y-61835771D01*
X72245237Y-61835771D02*
X72007142Y-61835771D01*
X72007142Y-61835771D02*
X71911904Y-61883390D01*
X71911904Y-61883390D02*
X71864285Y-61931009D01*
X71864285Y-61931009D02*
X71816666Y-62026247D01*
X71816666Y-62026247D02*
X71816666Y-62264342D01*
X71816666Y-62264342D02*
X71864285Y-62359580D01*
X71864285Y-62359580D02*
X71911904Y-62407200D01*
X71911904Y-62407200D02*
X72007142Y-62454819D01*
X72007142Y-62454819D02*
X72245237Y-62454819D01*
X72245237Y-62454819D02*
X72340475Y-62407200D01*
X72340475Y-62407200D02*
X72388094Y-62359580D01*
X74583332Y-71107200D02*
X74440475Y-71154819D01*
X74440475Y-71154819D02*
X74202380Y-71154819D01*
X74202380Y-71154819D02*
X74107142Y-71107200D01*
X74107142Y-71107200D02*
X74059523Y-71059580D01*
X74059523Y-71059580D02*
X74011904Y-70964342D01*
X74011904Y-70964342D02*
X74011904Y-70869104D01*
X74011904Y-70869104D02*
X74059523Y-70773866D01*
X74059523Y-70773866D02*
X74107142Y-70726247D01*
X74107142Y-70726247D02*
X74202380Y-70678628D01*
X74202380Y-70678628D02*
X74392856Y-70631009D01*
X74392856Y-70631009D02*
X74488094Y-70583390D01*
X74488094Y-70583390D02*
X74535713Y-70535771D01*
X74535713Y-70535771D02*
X74583332Y-70440533D01*
X74583332Y-70440533D02*
X74583332Y-70345295D01*
X74583332Y-70345295D02*
X74535713Y-70250057D01*
X74535713Y-70250057D02*
X74488094Y-70202438D01*
X74488094Y-70202438D02*
X74392856Y-70154819D01*
X74392856Y-70154819D02*
X74154761Y-70154819D01*
X74154761Y-70154819D02*
X74011904Y-70202438D01*
X73678570Y-70154819D02*
X73440475Y-71154819D01*
X73440475Y-71154819D02*
X73249999Y-70440533D01*
X73249999Y-70440533D02*
X73059523Y-71154819D01*
X73059523Y-71154819D02*
X72821428Y-70154819D01*
X72011904Y-70488152D02*
X72011904Y-71154819D01*
X72249999Y-70107200D02*
X72488094Y-70821485D01*
X72488094Y-70821485D02*
X71869047Y-70821485D01*
X80038095Y-32231009D02*
X80371428Y-32231009D01*
X80371428Y-32754819D02*
X80371428Y-31754819D01*
X80371428Y-31754819D02*
X79895238Y-31754819D01*
X79371428Y-32754819D02*
X79466666Y-32707200D01*
X79466666Y-32707200D02*
X79514285Y-32611961D01*
X79514285Y-32611961D02*
X79514285Y-31754819D01*
X78561904Y-32754819D02*
X78561904Y-32231009D01*
X78561904Y-32231009D02*
X78609523Y-32135771D01*
X78609523Y-32135771D02*
X78704761Y-32088152D01*
X78704761Y-32088152D02*
X78895237Y-32088152D01*
X78895237Y-32088152D02*
X78990475Y-32135771D01*
X78561904Y-32707200D02*
X78657142Y-32754819D01*
X78657142Y-32754819D02*
X78895237Y-32754819D01*
X78895237Y-32754819D02*
X78990475Y-32707200D01*
X78990475Y-32707200D02*
X79038094Y-32611961D01*
X79038094Y-32611961D02*
X79038094Y-32516723D01*
X79038094Y-32516723D02*
X78990475Y-32421485D01*
X78990475Y-32421485D02*
X78895237Y-32373866D01*
X78895237Y-32373866D02*
X78657142Y-32373866D01*
X78657142Y-32373866D02*
X78561904Y-32326247D01*
X78133332Y-32707200D02*
X78038094Y-32754819D01*
X78038094Y-32754819D02*
X77847618Y-32754819D01*
X77847618Y-32754819D02*
X77752380Y-32707200D01*
X77752380Y-32707200D02*
X77704761Y-32611961D01*
X77704761Y-32611961D02*
X77704761Y-32564342D01*
X77704761Y-32564342D02*
X77752380Y-32469104D01*
X77752380Y-32469104D02*
X77847618Y-32421485D01*
X77847618Y-32421485D02*
X77990475Y-32421485D01*
X77990475Y-32421485D02*
X78085713Y-32373866D01*
X78085713Y-32373866D02*
X78133332Y-32278628D01*
X78133332Y-32278628D02*
X78133332Y-32231009D01*
X78133332Y-32231009D02*
X78085713Y-32135771D01*
X78085713Y-32135771D02*
X77990475Y-32088152D01*
X77990475Y-32088152D02*
X77847618Y-32088152D01*
X77847618Y-32088152D02*
X77752380Y-32135771D01*
X77276189Y-32754819D02*
X77276189Y-31754819D01*
X76847618Y-32754819D02*
X76847618Y-32231009D01*
X76847618Y-32231009D02*
X76895237Y-32135771D01*
X76895237Y-32135771D02*
X76990475Y-32088152D01*
X76990475Y-32088152D02*
X77133332Y-32088152D01*
X77133332Y-32088152D02*
X77228570Y-32135771D01*
X77228570Y-32135771D02*
X77276189Y-32183390D01*
X75657141Y-32469104D02*
X75180951Y-32469104D01*
X75752379Y-32754819D02*
X75419046Y-31754819D01*
X75419046Y-31754819D02*
X75085713Y-32754819D01*
D12*
%TO.C,SW2*%
X69650000Y-58000000D02*
X69650000Y-56500000D01*
X70900000Y-54000000D02*
X75400000Y-54000000D01*
X75400000Y-60500000D02*
X70900000Y-60500000D01*
X76650000Y-56500000D02*
X76650000Y-58000000D01*
%TO.C,SW1*%
X58650000Y-67000000D02*
X58650000Y-65500000D01*
X59900000Y-63000000D02*
X64400000Y-63000000D01*
X64400000Y-69500000D02*
X59900000Y-69500000D01*
X65650000Y-65500000D02*
X65650000Y-67000000D01*
%TO.C,U1*%
D11*
X95100000Y-64700000D02*
X94300000Y-64700000D01*
X94300000Y-71600000D01*
X95100000Y-71600000D01*
X95100000Y-64700000D01*
X96600000Y-70400000D02*
X95500000Y-70400000D01*
X95500000Y-71600000D01*
X96600000Y-71600000D01*
X96600000Y-70400000D01*
X97700000Y-64700000D02*
X95500000Y-64700000D01*
X95500000Y-65900000D01*
X97700000Y-65900000D01*
X97700000Y-64700000D01*
X97700000Y-66600000D02*
X95500000Y-66600000D01*
X95500000Y-67800000D01*
X97700000Y-67800000D01*
X97700000Y-66600000D01*
X97700000Y-68500000D02*
X95500000Y-68500000D01*
X95500000Y-69700000D01*
X97700000Y-69700000D01*
X97700000Y-68500000D01*
X178300000Y-27800000D02*
X97900000Y-27800000D01*
X97900000Y-81000000D01*
X178300000Y-81000000D01*
X178300000Y-27800000D01*
X179500000Y-26500000D02*
X94100000Y-26500000D01*
X94100000Y-82100000D01*
X179500000Y-82100000D01*
X179500000Y-26500000D01*
D12*
%TO.C,D8*%
X68890000Y-43164000D02*
X68890000Y-43320000D01*
X68890000Y-45480000D02*
X68890000Y-45636000D01*
X65657666Y-43321392D02*
G75*
G02*
X68889999Y-43164485I1672334J-1078608D01*
G01*
X66288871Y-43320164D02*
G75*
G02*
X68370960Y-43320001I1041129J-1079836D01*
G01*
X68370960Y-45479999D02*
G75*
G02*
X66288871Y-45479836I-1040960J1079999D01*
G01*
X68889999Y-45635515D02*
G75*
G02*
X65657666Y-45478608I-1559999J1235515D01*
G01*
%TO.C,D7*%
X74725000Y-43164000D02*
X74725000Y-43320000D01*
X74725000Y-45480000D02*
X74725000Y-45636000D01*
X71492666Y-43321392D02*
G75*
G02*
X74724999Y-43164485I1672334J-1078608D01*
G01*
X72123871Y-43320164D02*
G75*
G02*
X74205960Y-43320001I1041129J-1079836D01*
G01*
X74205960Y-45479999D02*
G75*
G02*
X72123871Y-45479836I-1040960J1079999D01*
G01*
X74724999Y-45635515D02*
G75*
G02*
X71492666Y-45478608I-1559999J1235515D01*
G01*
%TO.C,D5*%
X71290000Y-34850600D02*
X71290000Y-37940600D01*
X65740000Y-36396062D02*
G75*
G02*
X71290000Y-34850770I2990000J462D01*
G01*
X71289999Y-37940430D02*
G75*
G02*
X65740001Y-36395138I-2559999J1544830D01*
G01*
X71230000Y-36395600D02*
G75*
G02*
X66230000Y-36395600I-2500000J0D01*
G01*
X66230000Y-36395600D02*
G75*
G02*
X71230000Y-36395600I2500000J0D01*
G01*
%TO.C,D4*%
X80590000Y-43164000D02*
X80590000Y-43320000D01*
X80590000Y-45480000D02*
X80590000Y-45636000D01*
X77357666Y-43321392D02*
G75*
G02*
X80589999Y-43164485I1672334J-1078608D01*
G01*
X77988871Y-43320164D02*
G75*
G02*
X80070960Y-43320001I1041129J-1079836D01*
G01*
X80070960Y-45479999D02*
G75*
G02*
X77988871Y-45479836I-1040960J1079999D01*
G01*
X80589999Y-45635515D02*
G75*
G02*
X77357666Y-45478608I-1559999J1235515D01*
G01*
%TO.C,SW3*%
X80650000Y-67000000D02*
X80650000Y-65500000D01*
X81900000Y-63000000D02*
X86400000Y-63000000D01*
X86400000Y-69500000D02*
X81900000Y-69500000D01*
X87650000Y-65500000D02*
X87650000Y-67000000D01*
%TO.C,SW5*%
X69650000Y-67000000D02*
X69650000Y-65500000D01*
X70900000Y-63000000D02*
X75400000Y-63000000D01*
X75400000Y-69500000D02*
X70900000Y-69500000D01*
X76650000Y-65500000D02*
X76650000Y-67000000D01*
%TO.C,SW4*%
X69750000Y-75700000D02*
X69750000Y-74200000D01*
X71000000Y-71700000D02*
X75500000Y-71700000D01*
X75500000Y-78200000D02*
X71000000Y-78200000D01*
X76750000Y-74200000D02*
X76750000Y-75700000D01*
%TO.C,D3*%
X80230000Y-34855000D02*
X80230000Y-37945000D01*
X74680000Y-36400462D02*
G75*
G02*
X80230000Y-34855170I2990000J462D01*
G01*
X80229999Y-37944830D02*
G75*
G02*
X74680001Y-36399538I-2559999J1544830D01*
G01*
X80170000Y-36400000D02*
G75*
G02*
X75170000Y-36400000I-2500000J0D01*
G01*
X75170000Y-36400000D02*
G75*
G02*
X80170000Y-36400000I2500000J0D01*
G01*
%TD*%
M02*
