M48
; DRILL file {KiCad 8.0.1} date 2024-03-20T08:47:00+0100
; FORMAT={-:-/ absolute / inch / decimal}
; #@! TF.CreationDate,2024-03-20T08:47:00+01:00
; #@! TF.GenerationSoftware,Kicad,Pcbnew,8.0.1
; #@! TF.FileFunction,Plated,1,2,PTH
FMAT,2
INCH
; #@! TA.AperFunction,Plated,PTH,ComponentDrill
T1C0.0276
; #@! TA.AperFunction,Plated,PTH,ComponentDrill
T2C0.0295
; #@! TA.AperFunction,Plated,PTH,ComponentDrill
T3C0.0300
; #@! TA.AperFunction,Plated,PTH,ComponentDrill
T4C0.0315
; #@! TA.AperFunction,Plated,PTH,ComponentDrill
T5C0.0394
%
G90
G05
T1
X5.7551Y-2.5472
X5.7591Y-3.1811
X6.0551Y-2.5472
X6.0591Y-3.1811
X6.1488Y-3.1811
X6.1496Y-2.5472
X6.4488Y-3.1811
X6.4496Y-2.5472
T2
X6.0551Y-2.7047
X6.0551Y-3.3386
X6.1051Y-2.7547
X6.1051Y-3.3886
X6.1551Y-2.7047
X6.1551Y-3.3386
T3
X5.5118Y-3.2245
X5.5157Y-3.0403
X5.626Y-3.4222
X5.6299Y-2.8426
T4
X5.8307Y-2.6811
X5.8307Y-2.878
X5.8307Y-3.3228
X5.8307Y-3.5197
X5.9882Y-2.9016
X5.9898Y-3.0394
X5.9961Y-3.5394
X5.9961Y-3.6811
X6.185Y-2.9016
X6.1866Y-3.0394
X6.1929Y-3.5394
X6.1929Y-3.6811
X6.2953Y-3.0394
X6.2992Y-3.6811
X6.4134Y-3.3858
X6.4134Y-3.4843
X6.4173Y-2.7441
X6.4173Y-2.8425
X6.4921Y-3.0394
X6.4961Y-3.6811
X6.6299Y-3.4961
X6.6299Y-3.6929
X6.6378Y-2.5512
X6.6378Y-2.748
T5
X6.778Y-3.0402
X6.778Y-3.1402
X6.778Y-3.2402
X6.878Y-3.0402
X6.878Y-3.1402
X6.878Y-3.2402
M30
